<svg width="24" height="24" viewBox="0 0 24 24" fill="none" xmlns="http://www.w3.org/2000/svg">
<path fill-rule="evenodd" clip-rule="evenodd" d="M4.25259 7.84151C3.8889 7.42587 3.25714 7.38375 2.8415 7.74744C2.42587 8.11112 2.38375 8.74288 2.74743 9.15852C3.0617 9.51768 3.40187 9.86213 3.76558 10.1882L2.03106 11.7766C1.62376 12.1496 1.59595 12.7822 1.96895 13.1895C2.34194 13.5968 2.9745 13.6246 3.3818 13.2516L5.38701 11.4153C6.15751 11.9038 6.99507 12.3149 7.88538 12.6261L6.88395 14.3607C6.60781 14.839 6.77168 15.4506 7.24998 15.7267C7.72827 16.0028 8.33986 15.839 8.616 15.3607L9.89958 13.1374C10.1932 13.1849 10.4908 13.2215 10.792 13.2466C11.8513 13.3348 12.9454 13.2802 14.0562 13.0609L15.3839 15.3607C15.6601 15.839 16.2717 16.0028 16.75 15.7267C17.2283 15.4506 17.3921 14.839 17.116 14.3607L16.039 12.4953C16.7493 12.2289 17.4621 11.8918 18.1727 11.4782L20.1091 13.2516C20.5164 13.6246 21.149 13.5968 21.522 13.1895C21.895 12.7822 21.8672 12.1496 21.4599 11.7766L19.8801 10.3299C20.3154 9.99615 20.7485 9.63156 21.1783 9.23482C21.5841 8.86021 21.6094 8.22755 21.2348 7.82173C20.8602 7.41591 20.2276 7.39061 19.8217 7.76521C16.7567 10.5945 13.6516 11.4779 10.9581 11.2535C8.23897 11.0269 5.84707 9.66377 4.25259 7.84151Z" fill="white"/>
</svg>
