<svg width="24" height="24" viewBox="0 0 24 24" fill="none" xmlns="http://www.w3.org/2000/svg">
<path fill-rule="evenodd" clip-rule="evenodd" d="M4.82781 12.3792C7.00865 14.321 9.40898 15.25 11.8124 15.25C14.2242 15.25 16.7433 14.3142 19.1465 12.3477C15.5048 7.87363 8.45359 7.88412 4.82781 12.3792ZM2.66788 11.9453C7.0637 5.35157 16.9362 5.35157 21.332 11.9453L21.8092 12.6612L21.1726 13.2399C18.2776 15.8718 15.0469 17.25 11.8124 17.25C8.57122 17.25 5.45126 15.8655 2.79282 13.2071L2.21313 12.6274L2.66788 11.9453Z" fill="white"/>
<path d="M14.9999 12C14.9999 13.6569 13.6567 15 11.9999 15C10.343 15 8.99988 13.6569 8.99988 12C8.99988 10.3431 10.343 9 11.9999 9C13.6567 9 14.9999 10.3431 14.9999 12Z" fill="white"/>
</svg>
