<svg width="50" height="50" viewBox="0 0 50 50" fill="none" xmlns="http://www.w3.org/2000/svg">
<path fill-rule="evenodd" clip-rule="evenodd" d="M20.2214 24.9774C20.2284 24.4025 20.381 23.8388 20.6652 23.339C20.9493 22.8392 21.3556 22.4197 21.846 22.1197C21.5341 21.6763 21.1239 21.3111 20.6473 21.0526C20.1708 20.7942 19.6409 20.6496 19.0991 20.6302C17.9318 20.5124 16.8164 21.323 16.2241 21.323C15.6317 21.323 14.7173 20.651 13.7474 20.6718C13.1089 20.6865 12.4853 20.8678 11.9385 21.1977C11.3917 21.5276 10.9405 21.9947 10.6298 22.5527C9.30662 24.8492 10.2834 28.2543 11.5824 30.1179C12.2128 31.0254 12.968 32.0542 13.9517 32.0161C14.9355 31.978 15.2611 31.403 16.4111 31.403C17.5611 31.403 17.8833 32.0161 18.8913 31.9953C19.8993 31.9745 20.5609 31.067 21.1879 30.1525C21.6364 29.4945 21.9865 28.7745 22.227 28.0153C21.6318 27.7613 21.1243 27.3379 20.7677 26.7978C20.4111 26.2577 20.2211 25.6246 20.2214 24.9774ZM18.3336 19.4005C18.9008 18.735 19.181 17.8718 19.113 17C18.2616 17.0865 17.4751 17.494 16.9134 18.1396C16.6305 18.4525 16.414 18.8194 16.2771 19.2184C16.1402 19.6173 16.0856 20.0398 16.1167 20.4605C16.5428 20.4662 16.9646 20.3735 17.3491 20.1896C17.7335 20.0058 18.0705 19.7358 18.3336 19.4005Z" fill="#F9F9F9"/>
<path d="M29.0371 22.9025V21.1705H26.9275V18.7458H25.0536V21.1705H23.4186V22.9025H25.0536V29.1895C25.0545 29.9352 25.3511 30.6501 25.8784 31.1774C26.4057 31.7047 27.1206 32.0013 27.8663 32.0022H28.805V30.1386H27.8663C27.7422 30.1382 27.6195 30.1132 27.5052 30.0653C27.3908 30.0173 27.287 29.9472 27.1998 29.859C27.1126 29.7708 27.0436 29.6663 26.9969 29.5514C26.9502 29.4365 26.9266 29.3135 26.9275 29.1895V22.9025H29.0371ZM37.8008 20.6856L34.9881 29.1306L32.1719 20.6856H30.2945L34.0494 31.9606H35.9268L39.6782 20.6994L37.8008 20.6856Z" fill="#F9F9F9"/>
</svg>
