<svg width="50" height="50" viewBox="0 0 50 50" fill="none" xmlns="http://www.w3.org/2000/svg">
<path d="M23.5274 27.7831C23.5451 27.7855 23.549 27.7862 23.5662 27.7884C23.8544 27.8276 24.1376 27.8795 24.3544 27.9764C24.5553 28.0651 24.673 28.1774 24.7805 28.3775C24.944 28.6809 24.9547 29.106 24.8069 29.4277C24.6966 29.6671 24.4543 29.8678 24.2331 29.9742C24.0034 30.0856 23.7771 30.1386 23.5176 30.1682C23.0636 30.2182 22.5734 30.1242 22.1649 29.9266C21.9232 29.8086 21.6281 29.6054 21.4793 29.3435C21.3698 29.1517 21.3733 28.9022 21.5065 28.7199C21.7188 28.4293 22.1734 28.3653 22.5159 28.3775C22.777 28.3876 23.2471 28.4683 23.495 28.5565C23.5637 28.5813 23.8171 28.68 23.8613 28.7253C23.8924 28.7568 23.9126 28.8026 23.8987 28.8449C23.842 29.0181 23.421 29.1094 23.2995 29.1278C22.974 29.1776 22.8052 29.0545 22.4352 28.9084C22.3434 28.8724 22.221 28.8325 22.1275 28.8239C21.9595 28.8079 21.7566 28.8549 21.7245 29.0383C21.7086 29.1328 21.8194 29.2211 21.9039 29.2583C22.1024 29.3435 22.2637 29.3742 22.4591 29.3768C23.0361 29.3863 23.6845 29.2913 24.1565 28.9569C24.2211 28.9108 24.2846 28.8433 24.2852 28.7582C24.2873 28.5864 23.9861 28.4814 23.9861 28.4814C23.6682 28.3488 23.0807 28.2843 22.7781 28.2594C22.4606 28.2319 21.9609 28.1908 21.8409 28.1731C21.7174 28.1555 21.5832 28.1306 21.4763 28.0826C21.3688 28.0341 21.2637 27.9255 21.2325 27.8053C21.1772 27.5886 21.2478 27.3227 21.3681 27.1497C21.6834 26.6963 22.4221 26.5241 22.974 26.4557C23.5081 26.3893 24.3716 26.3899 24.8963 26.6687C24.9773 26.7121 25.0186 26.7525 25.0017 26.8391C24.9675 27.0017 24.8454 27.1064 24.6973 27.1523C24.5419 27.2018 24.2205 27.221 24.0794 27.2299C23.4469 27.2654 22.6825 27.2468 22.0801 27.4111C22.0329 27.4246 21.9514 27.4465 21.9249 27.4761C21.8306 27.5785 22.0999 27.6078 22.1576 27.6195C22.1747 27.6236 22.1781 27.6241 22.196 27.6261L23.5274 27.7831ZM19.7646 24.9627C19.7646 24.9627 19.8675 24.8084 19.9537 24.6914C20.1107 24.4782 20.3947 24.1825 20.6087 23.9995C20.6741 23.9436 20.7513 23.8803 20.7513 23.8803C20.7513 23.8803 20.6306 23.8927 20.5622 23.9067C20.3999 23.9383 20.1619 24.0965 20.043 24.1987C19.8468 24.3667 19.631 24.6397 19.7286 24.8823C19.7401 24.9094 19.7521 24.9362 19.7646 24.9627ZM20.8554 25.2546C21.1654 25.2332 21.4558 25.144 21.7261 24.994C21.9912 24.8457 22.3812 24.5564 22.3407 24.2164C22.3284 24.1063 22.2564 24.0232 22.1654 23.9844C22.0472 23.9332 21.9855 23.9414 21.8345 23.9863C21.7247 24.0184 21.6753 24.0379 21.5717 24.0972C21.2676 24.2739 20.8364 24.652 20.6024 24.9537C20.5483 25.0249 20.4936 25.1045 20.4508 25.159C20.4238 25.1927 20.4028 25.2235 20.4054 25.2318C20.4148 25.266 20.7344 25.2628 20.8554 25.2546ZM20.0662 25.8343C20.0342 25.8681 20.0004 25.9497 19.9653 26.0087C19.9466 26.0403 19.9119 26.081 19.8889 26.0973C19.8082 26.1566 19.7399 26.1594 19.662 26.0908C19.5528 25.9942 19.4896 25.8448 19.4851 25.6995C19.4828 25.636 19.4937 25.5659 19.4817 25.5124C19.4618 25.4221 19.3715 25.3291 19.3228 25.2428C19.2656 25.1412 19.2193 24.9639 19.2135 24.8494C19.1939 24.4925 19.3821 24.1638 19.6264 23.9045C19.8725 23.6423 20.1945 23.4244 20.5447 23.276C20.8757 23.1366 21.3607 23.0416 21.7242 23.1674C21.8426 23.208 22.0074 23.3087 22.0903 23.4142C22.1079 23.4361 22.1222 23.4598 22.1403 23.4713C22.1564 23.4816 22.1987 23.4857 22.2323 23.4919C22.3482 23.512 22.5152 23.5998 22.5833 23.6582C22.7203 23.7764 22.7954 23.8894 22.8301 24.0533C22.8997 24.3831 22.7098 24.745 22.4934 24.9653C22.123 25.3443 21.7571 25.6109 21.2832 25.7964C21.0751 25.8777 20.7509 25.9537 20.5147 25.9324C20.4414 25.9263 20.366 25.907 20.2946 25.9023C20.2582 25.8991 20.1249 25.8648 20.1107 25.8551C20.093 25.8415 20.0702 25.8297 20.0662 25.8343ZM20.4895 26.5656C20.5039 26.5681 20.5261 26.5745 20.5453 26.5819C20.7114 26.6451 20.7798 26.7988 20.8207 26.9677C20.9155 27.3599 20.956 28.2276 20.9718 28.5672C20.9834 28.8221 20.9897 29.0729 21.0004 29.3248C21.0095 29.5382 21.0265 29.8219 20.982 30.0218C20.9659 30.0937 20.9178 30.1773 20.8489 30.2201C20.77 30.2706 20.5905 30.2744 20.4918 30.2541C20.2485 30.2038 20.1695 30.0474 20.1348 29.8068C20.0523 29.2328 20.092 28.1062 20.1407 27.6308C20.1569 27.4737 20.216 26.9706 20.298 26.7597C20.326 26.6886 20.3856 26.5453 20.4895 26.5656ZM13.0891 27.5207C13.0891 27.5207 12.7271 27.5464 12.4779 27.574C12.1609 27.6081 11.5652 27.711 11.2214 27.8338C11.1183 27.8707 10.9088 27.9584 10.8905 28.0644C10.8714 28.1743 10.9396 28.2603 11.0155 28.3492C11.0594 28.4009 11.3077 28.6397 11.3773 28.6978C11.6692 28.9415 12.261 29.3173 12.6969 29.4998C12.8467 29.5617 13.0944 29.6504 13.0944 29.6504C13.0944 29.6504 13.076 28.945 13.0793 28.2502C13.0812 27.8836 13.0891 27.5207 13.0891 27.5207ZM19.7276 27.8015C19.7483 27.991 19.6996 28.3493 19.6911 28.3965C19.6757 28.5054 19.5936 28.7567 19.5799 28.7874C19.5136 28.9401 19.4483 29.0652 19.379 29.19C19.2603 29.4036 18.978 29.7424 18.8104 29.8873C18.1872 30.426 17.2225 30.7326 16.3948 30.8337C15.8332 30.9015 15.1879 30.8915 14.5929 30.7814C14.3881 30.7442 14.0833 30.674 14.0833 30.674C14.0833 30.674 14.0843 30.7958 14.0746 30.8815C14.0698 30.9206 14.0404 31.0235 14.0239 31.0569C13.9806 31.1462 13.9096 31.1923 13.8063 31.2122C13.6816 31.2353 13.5494 31.243 13.4342 31.1938C13.245 31.1142 13.1771 30.9372 13.1442 30.7332C13.1175 30.5699 13.0896 30.2862 13.0896 30.2862C13.0896 30.2862 12.9481 30.2192 12.8301 30.1603C12.4677 29.9817 12.1235 29.7654 11.8224 29.5429C11.739 29.4806 11.3806 29.1805 11.3015 29.1059C11.0797 28.8954 10.8801 28.6859 10.7283 28.417C10.6103 28.207 10.5763 28.0206 10.6661 27.7981C10.7899 27.4879 11.2346 27.2544 11.5389 27.1213C11.7623 27.0227 12.4569 26.7959 12.7455 26.7538C12.8817 26.7343 13.0931 26.6965 13.1061 26.688C13.1114 26.684 13.1151 26.6805 13.119 26.6761C13.1256 26.6667 13.1368 26.3597 13.1347 26.2474C13.1319 26.137 13.2164 25.4117 13.2436 25.2583C13.2577 25.1754 13.3206 24.8561 13.3847 24.7723C13.4266 24.7156 13.5008 24.7202 13.5613 24.7574C13.8922 24.9632 13.9928 25.6768 14.0174 26.04C14.0321 26.2612 14.0394 26.594 14.0394 26.594C14.0394 26.594 14.4191 26.5828 14.6526 26.5894C14.8795 26.5947 15.1297 26.6305 15.3652 26.668C15.6668 26.7164 16.2546 26.8446 16.5917 27.0155C16.8693 27.1562 17.1291 27.3934 17.2133 27.6443C17.2915 27.8743 17.2798 28.0335 17.1607 28.2412C17.0267 28.4756 16.7734 28.6498 16.5165 28.6644C16.44 28.6688 16.1523 28.6306 16.0637 28.562C16.029 28.5347 16.0308 28.4854 16.0559 28.4519C16.0654 28.4402 16.1999 28.3687 16.2793 28.3269C16.3168 28.3069 16.3516 28.2823 16.3831 28.2537C16.449 28.1956 16.5084 28.1317 16.5017 28.0567C16.4926 27.9594 16.3897 27.8994 16.2916 27.8608C15.8312 27.678 14.9121 27.5262 14.468 27.4999C14.2941 27.4897 14.0468 27.4809 14.0468 27.4809L14.0991 29.9336C14.0991 29.9336 14.3035 29.9725 14.4647 29.9986C14.5571 30.0127 14.9488 30.0479 15.0529 30.0505C15.8455 30.0714 16.7301 30.0004 17.4574 29.6572C17.7767 29.5069 18.0697 29.3198 18.2915 29.0666C18.5838 28.7314 18.7369 28.2728 18.6964 27.7937C18.652 27.2705 18.2837 26.6494 17.9897 26.2713C17.2128 25.2721 15.8811 24.4503 14.7094 23.9684C13.5133 23.4768 12.3311 23.194 11.0616 23.1466C10.7344 23.1345 10.0208 23.151 9.66013 23.2508C9.60861 23.2653 9.55668 23.2827 9.50884 23.2934C9.47104 23.3027 9.41149 23.3277 9.39514 23.3409C9.38609 23.3482 9.37713 23.3584 9.37713 23.3584C9.37713 23.3584 9.39937 23.3707 9.42061 23.3797C9.45882 23.3963 9.61965 23.4063 9.70288 23.4216C9.77734 23.4356 9.85488 23.4747 9.88557 23.5292C9.91472 23.5811 9.91837 23.622 9.88352 23.6653C9.80179 23.7647 9.49418 23.7479 9.35873 23.7264C9.21796 23.704 9.0427 23.6609 9.01051 23.5384C8.97316 23.394 9.04174 23.2525 9.11582 23.1217C9.26465 22.86 9.47783 22.7239 9.79002 22.6386C10.2334 22.5166 10.7933 22.4313 11.212 22.4153C12.1597 22.3795 13.0567 22.5452 13.9749 22.824C14.5004 22.9829 15.1885 23.2496 15.6922 23.4921C16.0536 23.6663 16.6231 23.9868 16.943 24.1963C17.0439 24.2629 17.6343 24.6967 17.726 24.7729C17.9173 24.9293 18.1675 25.1542 18.3488 25.334C18.6993 25.6814 19.1354 26.2139 19.3472 26.6366C19.3982 26.7378 19.4377 26.8374 19.5035 26.9547C19.5261 26.9949 19.6229 27.2353 19.6389 27.3047C19.6549 27.3734 19.6782 27.4744 19.6815 27.4784C19.6862 27.5153 19.7311 27.7218 19.7276 27.8015ZM31.6417 27.2592C31.1979 27.3615 30.0308 27.4183 30.0308 27.4183L29.8837 27.8793C29.8837 27.8793 30.4669 27.8295 30.8912 27.8738C30.8912 27.8738 31.0287 27.8579 31.0448 28.0299C31.0503 28.1903 31.0312 28.3625 31.0312 28.3625C31.0312 28.3625 31.0224 28.4667 30.8748 28.4932C30.7148 28.5198 29.6177 28.5622 29.6177 28.5622L29.44 29.1631C29.44 29.1631 29.374 29.302 29.522 29.2624C29.6595 29.2256 30.809 29.0099 30.9587 29.0409C31.1192 29.0808 31.2967 29.2947 31.2454 29.4896C31.1842 29.7312 30.0369 30.463 29.3382 30.4119C29.3382 30.4119 28.971 30.4356 28.6607 29.9401C28.3717 29.4679 28.7702 28.5738 28.7702 28.5738C28.7702 28.5738 28.5875 28.1565 28.7199 28.015C28.7199 28.015 28.7987 27.9435 29.0284 27.9273L29.3096 27.3456C29.3096 27.3456 28.9893 27.3676 28.7987 27.132C28.6212 26.9084 28.6063 26.8057 28.7424 26.7439C28.888 26.6721 30.2219 26.4286 31.1398 26.4595C31.1398 26.4595 31.4588 26.4282 31.7355 26.9815C31.7355 26.9815 31.8695 27.2053 31.6417 27.2592ZM28.1892 29.4961C28.0716 29.7728 27.7609 30.0681 27.3748 29.8846C26.9937 29.7006 26.3867 28.4583 26.3867 28.4583C26.3867 28.4583 26.1563 27.995 26.112 28.007C26.112 28.007 26.0622 27.9165 26.0317 28.4227C25.9999 28.9268 26.0378 29.9097 25.8367 30.0645C25.6462 30.2196 25.4156 30.1578 25.2959 29.9766C25.1872 29.798 25.142 29.3737 25.2013 28.6286C25.271 27.882 25.4445 27.0876 25.6661 26.8403C25.8873 26.5946 26.065 26.7729 26.1342 26.8376C26.1342 26.8376 26.4302 27.1059 26.9184 27.8937L27.0045 28.0394C27.0045 28.0394 27.4481 28.7837 27.4944 28.782C27.4944 28.782 27.5307 28.8162 27.563 28.7916C27.6095 28.7783 27.5908 28.5396 27.5908 28.5396C27.5908 28.5396 27.4987 27.7285 27.0941 26.3556C27.0941 26.3556 27.0329 26.1844 27.0743 26.024C27.1153 25.8619 27.2778 25.938 27.2778 25.938C27.2778 25.938 27.905 26.2533 28.2095 27.2745C28.5119 28.2959 28.3087 29.2173 28.1892 29.4961ZM34.9394 28.8845C34.6539 29.3827 33.8479 30.4257 32.7767 30.1795C32.423 31.0372 32.1259 31.905 31.9559 33.2034C31.9559 33.2034 31.9186 33.4557 31.7089 33.3681C31.5011 33.2953 31.1588 32.9498 31.0896 32.4718C31.0151 31.844 31.2946 30.7826 31.8659 29.5656C31.6992 29.2947 31.5856 28.9077 31.6829 28.3566C31.6829 28.3566 31.8264 27.3333 32.8541 26.411C32.8541 26.411 32.9773 26.3046 33.0487 26.3373C33.1274 26.3703 33.091 26.7033 33.0285 26.8652C32.9637 27.0262 32.5061 27.8183 32.5061 27.8183C32.5061 27.8183 32.2207 28.3534 32.3011 28.7755C32.8401 27.9468 34.0653 26.2757 34.8248 26.8027C35.0799 26.9852 35.1975 27.3823 35.1975 27.8101C35.1976 28.1858 35.107 28.5852 34.9394 28.8845ZM34.7178 27.5721C34.7178 27.5721 34.6755 27.2426 34.3534 27.6056C34.0763 27.9119 33.5766 28.4858 33.1744 29.2653C33.5964 29.2179 34.0035 28.9889 34.1266 28.8723C34.3267 28.6947 34.7929 28.2129 34.7178 27.5721ZM40.8401 27.4971H38.877C38.8379 26.8299 38.7573 26.1799 38.6307 25.5106C38.6245 25.4771 38.6067 25.4468 38.5805 25.4249C38.5543 25.4031 38.5214 25.3911 38.4873 25.3911H38.0347C38.0151 25.3911 37.9958 25.3955 37.9781 25.4039C37.9605 25.4123 37.9449 25.4245 37.9325 25.4396C37.92 25.4548 37.9109 25.4726 37.9061 25.4917C37.9012 25.5108 37.9006 25.5307 37.9044 25.5501C38.033 26.1978 38.1144 26.8353 38.1546 27.4977H36.266C36.178 27.4977 36.1065 27.569 36.1065 27.6567V28.0648C36.1065 28.1071 36.1234 28.1477 36.1533 28.1776C36.1832 28.2075 36.2237 28.2244 36.266 28.2245H38.1817C38.1829 28.3252 38.1839 28.4154 38.1839 28.5C38.1839 29.0883 38.1585 29.5729 38.0992 30.1198C38.0969 30.1406 38.099 30.1617 38.1056 30.1816C38.1121 30.2015 38.1228 30.2197 38.137 30.2351C38.1507 30.2506 38.1676 30.2629 38.1864 30.2714C38.2053 30.2798 38.2257 30.2842 38.2463 30.2842H38.6661C38.7055 30.2843 38.7435 30.2697 38.7728 30.2432C38.802 30.2167 38.8203 30.1803 38.8241 30.141C38.8814 29.5904 38.906 29.0998 38.906 28.5C38.906 28.4157 38.9051 28.3252 38.9039 28.2244H40.8401C40.9279 28.2244 40.9996 28.1526 40.9996 28.0648V27.6566C40.9995 27.6143 40.9827 27.5738 40.9528 27.5439C40.9229 27.514 40.8824 27.4972 40.8401 27.4971Z" fill="white"/>
<path d="M14.5908 22.0273C14.5771 22.0476 14.5683 22.0708 14.5651 22.095C14.5619 22.1192 14.5643 22.1439 14.5723 22.167C14.5802 22.1902 14.5933 22.2112 14.6106 22.2286C14.6279 22.2459 14.6489 22.2591 14.672 22.2672L15.0239 22.3856C15.0443 22.3922 15.0656 22.3956 15.0871 22.3957C15.1192 22.3958 15.1509 22.3879 15.1793 22.3728C15.2076 22.3578 15.2319 22.3359 15.2498 22.3092C16.4025 20.6159 17.9625 19.2059 19.7615 18.2319C21.6188 17.2261 23.723 16.6941 25.8474 16.6941C28.4134 16.6941 30.8892 17.451 33.0074 18.8829C35.0741 20.2795 36.6792 22.2281 37.6492 24.518C37.6633 24.5515 37.6869 24.58 37.7172 24.6001C37.7475 24.6201 37.783 24.6308 37.8192 24.6308H38.2395C38.2635 24.6307 38.2871 24.6247 38.3083 24.6134C38.3294 24.6021 38.3475 24.5858 38.3609 24.5659C38.3744 24.546 38.3827 24.5231 38.3853 24.4992C38.3878 24.4753 38.3843 24.4511 38.3753 24.4288C37.3751 21.9667 35.6838 19.8678 33.4835 18.3599C31.2312 16.8161 28.5906 16 25.8474 16C21.3124 16 17.1042 18.2533 14.5908 22.0273Z" fill="url(#paint0_linear_2_123)"/>
<defs>
<linearGradient id="paint0_linear_2_123" x1="38.7757" y1="21.6117" x2="15.0639" y2="18.4057" gradientUnits="userSpaceOnUse">
<stop stop-color="#B1FFFF"/>
<stop offset="0.25" stop-color="#058BBF"/>
<stop offset="0.541667" stop-color="#085AA4"/>
<stop offset="0.703125" stop-color="#0D267A"/>
<stop offset="1" stop-color="#101C50"/>
</linearGradient>
</defs>
</svg>
