<svg width="50" height="50" viewBox="0 0 50 50" fill="none" xmlns="http://www.w3.org/2000/svg">
<g clip-path="url(#clip0_845_1291)">
<path d="M10.2573 25.7324C8.90078 25.7324 7.89128 25.2675 7.36288 24.8567C7.07107 24.6243 7.01587 24.446 7.1736 24.1593C7.28401 23.9578 7.38654 23.7486 7.48906 23.5471C7.67046 23.1906 7.84396 23.1286 8.20675 23.3378C8.89289 23.7331 9.61058 23.9733 10.4308 23.9423C11.7005 23.9191 12.1336 23.166 12.1501 22.2142C11.874 22.5319 11.4876 22.8109 10.5175 22.8186C9.57398 22.7855 8.87712 22.4854 8.36448 22.0979C7.26035 21.2842 6.85025 20.1373 7.0553 18.8432C7.27612 17.4095 8.11211 16.3943 9.57903 15.9604C10.5727 15.6659 11.4955 15.8906 12.3078 16.6501C12.2999 16.3401 12.3315 16.1463 12.4655 16.0456C12.5996 15.9526 12.9072 15.9449 13.0965 15.9526C14.1139 15.9604 14.0902 15.9139 14.0823 16.6036C14.0744 18.0372 14.0981 20.0908 14.0665 21.5245C14.0823 23.3843 13.4829 25.7324 10.2573 25.7324ZM12.2289 19.3546C12.2368 18.3162 11.5428 17.6032 10.557 17.58C9.57903 17.5567 8.81402 18.2465 8.82191 19.3391C8.8298 20.4783 9.55537 21.1215 10.5491 21.1292C11.4797 21.1447 12.2368 20.4473 12.2289 19.3546Z" fill="url(#paint0_linear_845_1291)"/>
<path d="M35.6602 34.9967C35.8279 34.7511 36.0834 34.3768 36.2675 34.1055C36.2946 34.0654 36.3299 34.0313 36.3711 34.0053C36.4124 33.9793 36.4587 33.9621 36.5071 33.9547C36.5555 33.9472 36.6049 33.9498 36.6523 33.9622C36.6996 33.9746 36.7438 33.9965 36.782 34.0266C37.0075 34.2054 37.2498 34.3358 37.5414 34.3358C37.6671 34.3403 37.7917 34.3124 37.9029 34.2548C38.0141 34.1972 38.1079 34.1119 38.175 34.0074C38.386 33.6806 38.5683 33.3368 38.72 32.9796C38.72 32.9796 36.9061 28.8801 36.078 27.028C35.8414 26.5011 35.8651 26.4701 36.4408 26.4701C36.8115 26.4701 37.1742 26.4856 37.5449 26.4623C37.8131 26.4468 37.9392 26.5631 38.0339 26.7955C38.5229 28.02 39.5797 30.709 39.5797 30.709C39.7847 30.1278 40.0134 29.5311 40.2027 29.0119C40.463 28.2834 40.739 27.5627 40.9756 26.8265C41.0702 26.5476 41.2201 26.4391 41.5198 26.4546C41.8589 26.4778 42.198 26.4623 42.5451 26.4623C43.0104 26.4623 43.0892 26.5863 42.9157 27.0125C42.4977 28.0432 40.7075 32.7161 40.1712 33.987C39.7678 34.8905 39.0796 36.0001 37.6438 36.0001C36.8725 36.0001 36.2505 35.8557 35.739 35.4666C35.6677 35.4126 35.6199 35.3341 35.6053 35.2469C35.5907 35.1597 35.6103 35.0703 35.6602 34.9967Z" fill="url(#paint1_linear_845_1291)"/>
<path d="M27.4889 16.5568C27.8922 16.1228 28.6599 15.8438 29.2726 15.8438C30.1795 15.8438 31.0871 16.2003 31.8394 17.1225C32.8009 18.2849 32.8087 20.5865 31.7463 21.7412C31.1647 22.4154 30.49 22.8726 29.3656 22.8726C28.6176 22.8806 27.8963 22.5995 27.3572 22.0899C27.3106 22.0512 27.3414 22.4696 27.2641 22.6014C27.1478 22.8183 25.8372 22.8028 25.7054 22.5859C25.6549 22.4848 25.6309 22.3729 25.6356 22.2604C25.6356 19.4008 25.6356 16.456 25.6277 13.5965C25.6277 13.2478 25.7828 13.1083 26.1167 13.116C26.4036 13.1238 26.6827 13.1393 26.9697 13.1238C27.3419 13.1083 27.4659 13.2865 27.4659 13.6352C27.4659 14.4799 27.4812 16.5258 27.4889 16.5568ZM29.0865 17.5875C28.1558 17.5797 27.4424 18.2772 27.4191 19.3543C27.396 20.3773 28.1481 21.16 29.0942 21.16C30.0406 21.1522 30.746 20.3928 30.7537 19.3776C30.7616 18.3314 30.0635 17.5875 29.0865 17.5875Z" fill="url(#paint2_linear_845_1291)"/>
<path d="M19.5946 32.5998C19.5946 33.5607 19.6025 34.4441 19.5946 35.3276C19.5867 35.9785 19.5788 35.9785 18.9085 35.9785C18.6719 35.9785 18.4353 35.963 18.1987 35.9785C17.8911 35.994 17.7886 35.839 17.7886 35.5601V26.8652C17.7886 26.5784 17.899 26.4312 18.2066 26.4545C18.4037 26.47 18.7586 26.4622 18.9558 26.4545C19.5 26.4467 19.4684 26.6094 19.4684 27.1209C21.3691 25.3463 24.1689 26.6792 24.6736 28.9498C25.0522 30.6547 24.3187 32.2743 22.8439 32.995C21.8739 33.46 20.9196 33.4522 19.9968 32.8633C19.8864 32.7858 19.7839 32.716 19.5946 32.5998ZM19.5631 29.7945C19.5552 30.8097 20.2965 31.6156 21.2666 31.6001C22.284 31.5846 22.9938 30.8561 22.978 29.81C22.9622 28.8025 22.418 28.0741 21.3455 28.0353C20.3044 27.9966 19.571 28.7483 19.5631 29.7945Z" fill="url(#paint3_linear_845_1291)"/>
<path d="M33.546 27.0822C33.6328 26.4545 33.5381 26.4468 34.2479 26.4545C34.4609 26.4545 34.6659 26.47 34.8789 26.4545C35.2338 26.4158 35.3442 26.6095 35.3442 26.9117V32.7238C35.3442 33.0493 35.2022 33.2275 34.8394 33.1965C34.658 33.181 34.4688 33.1965 34.2874 33.1965C33.6564 33.1965 33.5302 33.2043 33.5302 32.5146C33.1438 32.9718 32.4971 33.2895 31.7084 33.3283C30.7305 33.305 30.2967 33.1423 29.6263 32.6076C27.7414 31.0964 27.8992 28.1129 29.9418 26.811C30.975 26.1523 32.2447 26.1135 33.2542 26.8885C33.3331 26.9427 33.4198 26.997 33.546 27.0822ZM30.1548 29.7945C30.1548 30.8484 30.8646 31.6311 31.8346 31.6079C32.8283 31.5846 33.5302 30.8794 33.5381 29.8023C33.546 28.6321 32.6312 28.0199 31.8188 28.0121C30.8251 28.0121 30.0365 28.9653 30.1548 29.7945Z" fill="url(#paint4_linear_845_1291)"/>
<path d="M24.7136 19.3468C24.6978 21.3694 23.1993 22.8728 21.1724 22.8806C19.1298 22.8883 17.5998 21.3152 17.6313 19.2848C17.655 17.4869 19.1456 15.8286 21.1882 15.8518C23.3018 15.8751 24.7057 17.4792 24.7136 19.3468ZM22.876 19.4243C22.8996 18.4169 22.1898 17.6109 21.2592 17.5877C20.2418 17.5644 19.4689 18.2851 19.4374 19.2848C19.4058 20.3 20.1708 21.1447 21.133 21.1602C22.0952 21.1757 22.8444 20.4162 22.876 19.4243Z" fill="url(#paint5_linear_845_1291)"/>
<path d="M33.302 19.3392C33.302 17.2468 34.9346 15.8364 36.8431 15.8597C39.0041 15.8829 40.4079 17.4638 40.3606 19.4399C40.3133 21.416 38.8306 22.8729 36.7879 22.8574C34.7926 22.8497 33.2626 21.3618 33.302 19.3392ZM38.5388 19.3469C38.5309 18.293 37.8132 17.58 36.7643 17.58C35.8652 17.5723 35.0292 18.3627 35.0923 19.4942C35.1127 19.9444 35.3097 20.3694 35.642 20.68C35.9742 20.9906 36.416 21.1627 36.8747 21.1603C37.829 21.1448 38.5466 20.3621 38.5388 19.3469Z" fill="url(#paint6_linear_845_1291)"/>
<path d="M27.4655 28.4305C27.4655 29.8642 27.4576 31.3056 27.4734 32.7392C27.4734 33.0725 27.3472 33.2042 27.016 33.1887C26.727 33.1732 26.4374 33.1732 26.1484 33.1887C25.7699 33.2119 25.6279 33.0337 25.6279 32.685V24.2226C25.6279 23.7344 25.6989 23.6646 26.1879 23.6569C26.4639 23.6569 26.7399 23.6646 27.016 23.6569C27.3551 23.6414 27.4734 23.7886 27.4734 24.1141C27.4576 25.5555 27.4655 26.9969 27.4655 28.4305Z" fill="url(#paint7_linear_845_1291)"/>
<path d="M14.9735 17.9752V13.5503C14.9735 13.0233 15.1864 12.8451 15.8489 13.1318C16.6139 13.4573 16.8111 13.5348 16.8111 14.147C16.8111 16.5416 16.8111 19.1997 16.7874 21.6717C16.7795 22.1522 16.8111 22.3614 16.2117 22.6249C16.0855 22.6792 15.841 22.8032 15.6596 22.8729C15.2968 23.0201 14.9656 22.8729 14.9735 22.3537C14.9813 21.3153 14.9735 20.2768 14.9656 19.2384C14.9656 18.8199 14.9656 18.4015 14.9735 17.9752Z" fill="url(#paint8_linear_845_1291)"/>
</g>
<defs>
<linearGradient id="paint0_linear_845_1291" x1="12.1954" y1="21.9428" x2="29.312" y2="39.3624" gradientUnits="userSpaceOnUse">
<stop offset="0.123" stop-color="#FE012F"/>
<stop offset="0.955" stop-color="#FE8E04"/>
</linearGradient>
<linearGradient id="paint1_linear_845_1291" x1="21.155" y1="13.1392" x2="38.2716" y2="30.5589" gradientUnits="userSpaceOnUse">
<stop offset="0.123" stop-color="#FE012F"/>
<stop offset="0.955" stop-color="#FE8E04"/>
</linearGradient>
<linearGradient id="paint2_linear_845_1291" x1="21.5545" y1="12.7461" x2="38.6712" y2="30.1658" gradientUnits="userSpaceOnUse">
<stop offset="0.123" stop-color="#FE012F"/>
<stop offset="0.955" stop-color="#FE8E04"/>
</linearGradient>
<linearGradient id="paint3_linear_845_1291" x1="11.6006" y1="22.5272" x2="28.7172" y2="39.9468" gradientUnits="userSpaceOnUse">
<stop offset="0.123" stop-color="#FE012F"/>
<stop offset="0.955" stop-color="#FE8E04"/>
</linearGradient>
<linearGradient id="paint4_linear_845_1291" x1="18.4222" y1="15.8242" x2="35.5389" y2="33.2438" gradientUnits="userSpaceOnUse">
<stop offset="0.123" stop-color="#FE012F"/>
<stop offset="0.955" stop-color="#FE8E04"/>
</linearGradient>
<linearGradient id="paint5_linear_845_1291" x1="17.9944" y1="16.2445" x2="35.1111" y2="33.6642" gradientUnits="userSpaceOnUse">
<stop offset="0.123" stop-color="#FE012F"/>
<stop offset="0.955" stop-color="#FE8E04"/>
</linearGradient>
<linearGradient id="paint6_linear_845_1291" x1="25.8274" y1="8.54789" x2="42.944" y2="25.9676" gradientUnits="userSpaceOnUse">
<stop offset="0.123" stop-color="#FE012F"/>
<stop offset="0.955" stop-color="#FE8E04"/>
</linearGradient>
<linearGradient id="paint7_linear_845_1291" x1="16.0828" y1="18.123" x2="33.1994" y2="35.5426" gradientUnits="userSpaceOnUse">
<stop offset="0.123" stop-color="#FE012F"/>
<stop offset="0.955" stop-color="#FE8E04"/>
</linearGradient>
<linearGradient id="paint8_linear_845_1291" x1="15.9496" y1="18.2539" x2="33.0662" y2="35.6736" gradientUnits="userSpaceOnUse">
<stop offset="0.123" stop-color="#FE012F"/>
<stop offset="0.955" stop-color="#FE8E04"/>
</linearGradient>
<clipPath id="clip0_845_1291">
<rect width="36" height="23" fill="white" transform="translate(7 13)"/>
</clipPath>
</defs>
</svg>
