<svg width="50" height="50" viewBox="0 0 50 50" fill="none" xmlns="http://www.w3.org/2000/svg">
<path fill-rule="evenodd" clip-rule="evenodd" d="M19.8341 29.954H16.9024V25.9651H15.0039V29.954H12V19.6605H15.0039V23.5005H16.9024V19.6605H19.8341V29.954ZM33.2794 30C36.2832 30 38.7343 27.6158 38.7343 24.7155C38.7343 21.7696 36.2834 19.4886 33.2794 19.4886C30.2395 19.4886 28.7015 21.5976 28.3291 22.4574C28.3291 21.185 26.9952 19.6605 25.4453 19.6605H20.4349V29.954H25.097C26.9952 29.954 28.3291 28.4065 28.3291 27.0539C28.7494 27.8907 30.2395 30 33.2794 30ZM24.7244 25.8159C25.1569 25.8159 25.5054 26.217 25.5054 26.6757C25.5054 27.1571 25.1568 27.5583 24.7244 27.5583H23.2345V25.8159H24.7244ZM24.7244 21.953C25.1569 21.953 25.5054 22.3542 25.5054 22.8128C25.5054 23.2714 25.1568 23.6725 24.7244 23.6725H23.2345V21.953H24.7244ZM26.6949 24.7155C27.0434 24.6927 27.6082 24.3144 27.8244 24.0852C27.7402 24.3603 27.7402 25.2314 27.8244 25.5066C27.5839 25.174 27.0434 24.7729 26.6949 24.7155ZM30.5396 24.7155C30.5396 23.2713 31.7655 22.1021 33.2792 22.1021C34.7929 22.1021 36.0185 23.2713 36.0185 24.7155C36.0185 26.1713 34.7929 27.3407 33.2792 27.3407C31.7655 27.3407 30.5396 26.1713 30.5396 24.7155ZM33.2794 26.779C34.4448 26.779 35.4302 25.8619 35.4302 24.7155C35.4302 23.5694 34.4448 22.6637 33.2794 22.6637C32.0778 22.6637 31.1164 23.5694 31.1164 24.7155C31.1152 24.9868 31.1704 25.2557 31.2786 25.5065C31.3869 25.7574 31.5462 25.9853 31.7473 26.1772C31.9484 26.369 32.1873 26.521 32.4502 26.6243C32.7132 26.7275 32.995 26.7801 33.2794 26.779ZM37.4709 19.7983C37.4709 19.4203 37.7692 19.1342 38.1537 19.1342C38.5319 19.1342 38.8317 19.4203 38.8317 19.7983C38.8317 20.1836 38.5318 20.4677 38.1537 20.4677C37.7692 20.4677 37.4709 20.1836 37.4709 19.7983ZM38.1537 20.6001C38.61 20.6001 39 20.2616 39 19.7983C39 19.3386 38.61 19 38.1537 19C37.6921 19 37.3015 19.3386 37.3015 19.7983C37.3015 20.2615 37.6921 20.6001 38.1537 20.6001ZM37.9756 19.8614H38.1443L38.3995 20.2615H38.564L38.289 19.8552C38.4303 19.8387 38.5399 19.7667 38.5399 19.6009C38.5399 19.4203 38.4265 19.3386 38.1976 19.3386H37.8296V20.2615H37.9756V19.8614ZM37.9756 19.7431V19.4582H38.1751C38.2775 19.4582 38.3863 19.4783 38.3863 19.5931C38.3863 19.7352 38.2752 19.7431 38.151 19.7431H37.9756Z" fill="#3382C3"/>
</svg>
