<svg width="50" height="50" viewBox="0 0 50 50" fill="none" xmlns="http://www.w3.org/2000/svg">
<path d="M23.67 26.46L23.66 31.52C23.66 36.33 23.65 36.6 23.6 36.6C23.42 36.6 21.9 36.7 21.39 36.75C21.06 36.78 20.39 36.85 19.91 36.91C19.42 36.97 19.02 37.01 19.01 37C19.01 36.99 19 31.59 19 24.99V13L23.67 26.46ZM31.99 13.01H27.36L27.35 18.32V23.649L31.98 36.99C32 36.98 32 31.57 32 24.98L31.99 13.01Z" fill="#AD080F"/>
<path d="M31.98 36.99H31.94C31.86 36.99 31.7 36.98 31.51 36.96C30.44 36.83 29.03 36.7 27.89 36.65C27.52 36.63 27.21 36.61 27.2 36.61C27.2 36.61 26.91 35.77 26.36 34.2C25.83 32.67 25.05 30.43 24.04 27.52L23.67 26.46L19 13H23.65L23.85 13.57L24.73 16.1L31.98 36.99Z" fill="#DF0D12"/>
</svg>
