<svg width="50" height="50" viewBox="0 0 50 50" fill="none" xmlns="http://www.w3.org/2000/svg">
<path d="M22.3227 30.8631C22.2152 30.8153 22.0361 30.6243 22.3346 30.075L23.0033 28.666C23.0272 28.6182 22.9794 28.5705 22.9436 28.6063L22.3585 29.2033C22.0838 29.4899 21.6062 30.3138 21.5107 30.469L20.7943 31.6511C20.8659 31.6511 20.9137 31.7347 20.8778 31.7944L20.2211 32.893C20.0659 33.1676 20.3525 33.3587 20.3883 33.299C21.4152 31.6392 22.0122 31.7706 22.0122 31.7706L22.3585 30.9705C22.3943 30.9228 22.3704 30.875 22.3227 30.8631Z" fill="#0164FF"/>
<path d="M24.663 17C18.7763 17 14 21.7763 14 27.663C14 30.0392 14.7761 32.2243 16.0777 33.9915C16.5195 33.8005 16.7702 33.5139 16.9493 33.287L18.9315 30.7437C18.9792 30.6959 19.027 30.6481 19.0867 30.6243L19.3852 30.4929L22.645 26.3495L23.1226 25.9794L24.0898 24.6301C24.1137 24.5942 24.1495 24.5584 24.1854 24.5345L24.6152 24.2241C24.7227 24.1524 24.866 24.1405 24.9734 24.2241L25.4869 24.5823C25.7615 24.7734 25.9765 25.0241 26.1317 25.3226L28.1974 28.9406C28.2452 29.0242 28.281 29.06 28.3646 29.0959C28.7706 29.2989 29.0094 29.3347 29.5467 29.9078C29.7975 30.1825 30.8721 31.3885 32.3886 33.2631C32.6035 33.5497 32.8662 33.7885 33.2483 33.9557C34.5498 32.1885 35.326 30.0034 35.326 27.6391C35.326 21.7763 30.5497 17 24.663 17ZM16.8777 28.2361L16.1851 28.0093L15.7553 28.5944V27.866L15.0627 27.6391L15.7553 27.4122V26.6839L16.1851 27.2689L16.8777 27.0421L16.4478 27.6272L16.8777 28.2361ZM16.7225 30.6243L16.4956 31.3168L16.2687 30.6243H15.5403L16.1254 30.1944L15.8986 29.5018L16.4837 29.9317L17.0687 29.5018L16.8419 30.1944L17.427 30.6243H16.7225ZM16.8538 25.1196L17.0807 25.8122L16.4956 25.3823L15.9105 25.8122L16.1374 25.1196L15.5523 24.6898H16.2807L16.5075 23.9972L16.7344 24.6898H17.4628L16.8538 25.1196ZM18.024 23.5554L17.5941 22.9703L16.9016 23.1972L17.3314 22.6121L16.9016 22.027L17.5941 22.2539L18.024 21.6688V22.3972L18.7166 22.624L18.024 22.8509V23.5554ZM19.839 21.0121L19.6121 21.7046L19.3852 21.0121H18.6568L19.2419 20.5822L19.0151 19.8896L19.6002 20.3195L20.1852 19.8896L19.9584 20.5822L20.5435 21.0121H19.839ZM22.1316 19.8538L21.7017 20.4389V19.7105L21.0092 19.4837L21.7017 19.2568V18.5403L22.1316 19.1254L22.8241 18.8986L22.3943 19.4837L22.8241 20.0687L22.1316 19.8538ZM25.0331 19.1732L25.26 19.8658L24.6749 19.4359L24.0898 19.8658L24.3167 19.1732L23.7316 18.7433H24.46L24.6869 18.0508L24.9137 18.7433H25.6421L25.0331 19.1732ZM27.6362 19.7105V20.4389L27.2063 19.8538L26.5138 20.0807L26.9436 19.4956L26.5138 18.9105L27.2063 19.1374L27.6362 18.5523V19.2807L28.3288 19.5075L27.6362 19.7105ZM32.4483 27.054L33.1408 27.2809L33.5707 26.6958V27.4242L34.2633 27.651L33.5707 27.8779V28.6063L33.1408 28.0212L32.4483 28.2481L32.8781 27.663L32.4483 27.054ZM29.7139 21.7046L29.487 21.0121H28.7586L29.3437 20.5822L29.1168 19.8896L29.7019 20.3195L30.287 19.8896L30.0602 20.5822L30.6452 21.0121H29.9407L29.7139 21.7046ZM31.3139 23.5554V22.839L30.6214 22.6121L31.3139 22.3852V21.6568L31.7438 22.2419L32.4363 22.0151L32.0065 22.6002L32.4363 23.1853L31.7438 22.9584L31.3139 23.5554ZM32.6154 24.6898L32.8423 23.9972L33.0692 24.6898H33.7976L33.2125 25.1196L33.4394 25.8122L32.8543 25.3823L32.2692 25.8122L32.496 25.1196L31.911 24.6898H32.6154ZM33.0692 30.6243L32.8423 31.3168L32.6154 30.6243H31.8871L32.4722 30.1944L32.2453 29.5018L32.8304 29.9317L33.4155 29.5018L33.1886 30.1944L33.7737 30.6243H33.0692Z" fill="#0164FF"/>
<path d="M28.5317 33.8244C28.5794 33.7527 28.663 33.5497 28.5078 33.1676L28.0421 31.9019C27.9824 31.7348 28.1137 31.6392 28.2093 31.7467C28.2093 31.7467 29.1048 32.7736 29.3317 33.2034L29.7735 33.9318C30.1556 33.9557 31.1944 33.9915 32.1974 33.9915C32.1019 33.896 32.0064 33.7885 31.9109 33.6691C30.1914 31.5437 29.1048 30.3616 29.1048 30.3496C28.7585 29.9675 28.5914 29.8959 28.3287 29.7765C28.2928 29.7645 28.2451 29.7407 28.2093 29.7168V30.0392C28.2093 30.0869 28.1615 30.0989 28.1376 30.0631L25.6181 25.6331L25.6062 25.6211C25.4987 25.4182 25.3435 25.239 25.1525 25.0958L24.9017 24.9286L23.6957 27.6988C23.8868 27.6988 24.0062 27.8899 23.9345 28.057L22.824 30.6243H23.839C24.233 30.6243 24.6271 30.6959 24.9853 30.8511L25.248 30.9586C25.248 30.9586 24.436 32.6303 24.436 33.502C24.436 33.6572 24.4599 33.8244 24.5077 33.9796H26.3704L26.2868 33.4542C26.3107 33.4423 27.4331 33.7169 28.5317 33.8244Z" fill="#0164FF"/>
</svg>
