<svg width="50" height="50" viewBox="0 0 50 50" fill="none" xmlns="http://www.w3.org/2000/svg">
<path d="M24.8448 30.4617V30.4447C24.8618 30.4235 24.8916 30.4107 24.9171 30.415C25.0403 30.4107 25.1592 30.4107 25.2824 30.415C25.3079 30.415 25.3377 30.4235 25.3547 30.4447V30.4617H24.8448Z" fill="#D1EFFA"/>
<path d="M25.3546 30.4447C25.1847 30.4405 25.0148 30.4405 24.8448 30.4447C24.6112 30.432 24.3775 30.4235 24.1439 30.4065C23.5236 30.3598 22.9076 30.2663 22.3043 30.1261C20.2183 29.6418 18.3873 28.6689 16.7899 27.2542C16.6412 27.1225 16.501 26.9865 16.3566 26.8506C16.3226 26.8208 16.2928 26.7784 16.2758 26.7359C16.2503 26.6764 16.2631 26.6127 16.3056 26.5659C16.3481 26.5192 16.416 26.5022 16.4755 26.5277C16.5137 26.5447 16.552 26.5617 16.586 26.5829C18.1111 27.5261 19.7765 28.2143 21.5226 28.6222C22.1089 28.7581 22.6994 28.8643 23.2942 28.9408C24.1481 29.047 25.0105 29.0852 25.8687 29.0555C26.3318 29.0428 26.7906 29.0003 27.2494 28.9408C28.32 28.8048 29.3779 28.5627 30.4017 28.2228C30.9413 28.0444 31.4681 27.8405 31.9821 27.6026C32.0586 27.5601 32.1521 27.5473 32.237 27.5686C32.3772 27.6025 32.4622 27.747 32.4282 27.8872C32.424 27.9042 32.4155 27.9254 32.407 27.9424C32.373 28.0061 32.3263 28.0614 32.2668 28.1039C31.7782 28.4862 31.2514 28.8218 30.6949 29.1022C29.6455 29.6333 28.5239 30.0114 27.3684 30.2281C26.7014 30.347 26.0301 30.4192 25.3546 30.4447ZM19.0628 21.8332C19.169 21.7695 19.2795 21.7015 19.3942 21.6421C19.6915 21.4891 20.0229 21.4126 20.3585 21.4296C20.6007 21.4424 20.8216 21.5104 20.9916 21.6888C21.153 21.8545 21.2125 22.0584 21.2295 22.2793C21.2337 22.326 21.2337 22.3728 21.2337 22.4238V24.6244C21.2337 24.8156 21.2082 24.8411 21.017 24.8411H20.4987C20.4648 24.8411 20.4308 24.8411 20.3968 24.8368C20.3458 24.8326 20.3033 24.7901 20.2948 24.7391C20.2863 24.6924 20.2863 24.6457 20.2863 24.5989V22.6319C20.2906 22.5512 20.2821 22.4747 20.2608 22.3983C20.2268 22.2666 20.1079 22.1731 19.9719 22.1646C19.7213 22.1476 19.4706 22.1986 19.2412 22.3048C19.2072 22.3133 19.186 22.3473 19.1902 22.3813V24.6159C19.1902 24.6584 19.1902 24.6967 19.1817 24.7391C19.1817 24.7986 19.135 24.8411 19.0755 24.8411C19.0118 24.8453 18.9481 24.8453 18.8801 24.8453H18.4298C18.2726 24.8453 18.2386 24.8071 18.2386 24.6499V22.6404C18.2386 22.5682 18.2343 22.4917 18.2174 22.4195C18.1876 22.2751 18.0644 22.1731 17.92 22.1646C17.6651 22.1476 17.4059 22.1986 17.1765 22.3091C17.1425 22.3176 17.1213 22.3558 17.1298 22.3898V24.6542C17.1298 24.8114 17.0958 24.8453 16.9386 24.8453H16.3693C16.2206 24.8453 16.1824 24.8029 16.1824 24.6584V21.71C16.1824 21.676 16.1866 21.6421 16.1951 21.6081C16.2121 21.5571 16.2631 21.5274 16.3141 21.5274H16.8451C16.9216 21.5274 16.9683 21.5741 16.9938 21.6463C17.0151 21.7058 17.0278 21.761 17.049 21.8247C17.0915 21.8247 17.117 21.795 17.1468 21.778C17.3804 21.6336 17.6268 21.5104 17.903 21.4594C18.1154 21.4169 18.3278 21.4169 18.5402 21.4594C18.7399 21.5019 18.9183 21.6208 19.033 21.7908C19.0415 21.8035 19.05 21.812 19.0585 21.8205C19.0543 21.8247 19.0585 21.8247 19.0628 21.8332Z" fill="white"/>
<path d="M27.8697 23.9489C27.8952 23.8639 27.9207 23.7832 27.9462 23.6982C28.1416 23.0397 28.337 22.3855 28.5325 21.727L28.5579 21.6505C28.5792 21.574 28.6514 21.5273 28.7279 21.5273H29.3736C29.5351 21.5273 29.5691 21.574 29.5138 21.727L29.2589 22.4025C28.9743 23.1417 28.6896 23.8852 28.405 24.6244C28.3965 24.6499 28.3838 24.6754 28.3753 24.7009C28.3455 24.7901 28.2563 24.8496 28.1628 24.8411C27.9759 24.8368 27.789 24.8368 27.6021 24.8411C27.4704 24.8453 27.3939 24.7858 27.3472 24.6669C27.2409 24.3865 27.1305 24.1018 27.0243 23.8214C26.7694 23.1544 26.5102 22.4875 26.2553 21.8162C26.2298 21.7652 26.2128 21.7057 26.2001 21.6505C26.1873 21.5656 26.2171 21.5231 26.3021 21.5231C26.5442 21.5188 26.7864 21.5231 27.0243 21.5231C27.1262 21.5231 27.173 21.591 27.1985 21.6803C27.2452 21.8417 27.2919 22.0074 27.3429 22.1688C27.5171 22.7593 27.687 23.3541 27.8612 23.9447C27.857 23.9489 27.8612 23.9489 27.8697 23.9489Z" fill="white"/>
<path d="M12.7837 21.9947C12.8135 21.9862 12.839 21.9692 12.856 21.9437C12.9324 21.8672 13.0132 21.795 13.0981 21.727C13.319 21.5571 13.5952 21.4721 13.8713 21.4934C13.9818 21.4976 14.02 21.5316 14.0285 21.6378C14.037 21.7823 14.0328 21.931 14.0328 22.0754C14.037 22.1349 14.0328 22.1901 14.0243 22.2496C14.0073 22.3261 13.9775 22.3558 13.9011 22.3643C13.8416 22.3685 13.7864 22.3643 13.7269 22.3601C13.4422 22.3346 13.1661 22.3898 12.8984 22.479C12.839 22.5002 12.839 22.5427 12.839 22.5895V24.6287C12.839 24.6669 12.839 24.7009 12.8347 24.7392C12.8305 24.7944 12.788 24.8369 12.7328 24.8369C12.703 24.8411 12.669 24.8411 12.6393 24.8411H12.087C12.0573 24.8411 12.0233 24.8411 11.9935 24.8369C11.9383 24.8326 11.8958 24.7859 11.8916 24.7307C11.8873 24.6967 11.8873 24.6627 11.8873 24.6287V21.7398C11.8873 21.5444 11.9086 21.5231 12.104 21.5231H12.5118C12.6223 21.5231 12.6733 21.5614 12.703 21.6676C12.7328 21.7738 12.7582 21.88 12.7837 21.9947ZM32.6577 26.3026C32.9381 26.3111 33.2143 26.3281 33.4862 26.4003C33.5626 26.4215 33.6348 26.447 33.7071 26.481C33.8048 26.5192 33.8685 26.6127 33.8813 26.7147C33.8983 26.8336 33.9025 26.9568 33.894 27.08C33.8388 27.8065 33.6136 28.5075 33.2397 29.132C33.1038 29.3572 32.9381 29.5611 32.7469 29.7395C32.7087 29.7777 32.662 29.8075 32.611 29.8245C32.5303 29.8457 32.4793 29.8032 32.475 29.7225C32.4793 29.68 32.4878 29.6375 32.5048 29.5951C32.6535 29.1957 32.7979 28.8006 32.9126 28.3885C32.9806 28.1634 33.0273 27.9339 33.0571 27.7003C33.0656 27.6153 33.0698 27.5303 33.0613 27.4454C33.0571 27.3009 32.9636 27.1777 32.8234 27.1352C32.6917 27.0928 32.5558 27.0673 32.4156 27.0588C32.0247 27.0418 31.6339 27.0588 31.2473 27.1098L30.7332 27.1735C30.678 27.1777 30.627 27.1735 30.5972 27.1225C30.5675 27.0715 30.5803 27.0205 30.61 26.9696C30.644 26.9228 30.6865 26.8803 30.7374 26.8506C31.0518 26.6254 31.4044 26.4895 31.7783 26.4003C32.0672 26.3408 32.3603 26.3111 32.6577 26.3026Z" fill="white"/>
<path d="M30.8775 23.1842V24.7136C30.869 24.7986 30.8308 24.8368 30.7458 24.8411C30.5164 24.8453 30.2913 24.8453 30.0619 24.8411C29.9769 24.8411 29.9387 24.7986 29.9302 24.7179C29.9259 24.6924 29.9259 24.6627 29.9259 24.6372V21.6973C29.9302 21.5656 29.9641 21.5273 30.0958 21.5273H30.7076C30.8393 21.5273 30.8775 21.5656 30.8775 21.6973V23.1842Z" fill="white"/>
<path d="M14.4405 23.1757V21.6675C14.4448 21.5656 14.483 21.5273 14.585 21.5231C14.8059 21.5188 15.0268 21.5188 15.2477 21.5231C15.3454 21.5231 15.3752 21.5528 15.3837 21.6505C15.3879 21.6888 15.3879 21.7228 15.3879 21.761V24.5904C15.3879 24.6372 15.3837 24.6839 15.3794 24.7306C15.3752 24.7858 15.3327 24.8241 15.2775 24.8283C15.252 24.8326 15.2307 24.8326 15.2052 24.8326H14.6147C14.5935 24.8326 14.5765 24.8326 14.5552 24.8283C14.4958 24.8241 14.4448 24.7773 14.4405 24.7179C14.4363 24.6839 14.4363 24.6499 14.4363 24.6159C14.4405 24.1443 14.4405 23.66 14.4405 23.1757ZM14.9333 20.0022C15.0013 19.9979 15.0693 20.0107 15.133 20.0319C15.3624 20.1084 15.4814 20.308 15.4601 20.5672C15.4432 20.7881 15.2775 20.9665 15.0565 21.0005C14.9631 21.0175 14.8654 21.0175 14.7719 21.0005C14.5297 20.9538 14.3513 20.7754 14.3683 20.4695C14.3938 20.1678 14.5935 20.0022 14.9333 20.0022Z" fill="white"/>
<path d="M30.406 20.0022C30.4909 19.9937 30.5759 20.0107 30.6566 20.0446C30.8223 20.1084 30.937 20.2613 30.9455 20.4397C30.9795 20.8264 30.7203 21.0218 30.3762 21.0133C30.3295 21.0133 30.2828 21.0048 30.236 20.9963C29.9726 20.9326 29.8367 20.7286 29.8622 20.4355C29.8834 20.2018 30.0661 20.0277 30.3167 20.0064C30.3465 20.0022 30.3762 19.9979 30.406 20.0022Z" fill="white"/>
<path d="M11.2585 22.8274C11.2415 22.6064 11.182 22.3898 11.0928 22.1901C10.9186 21.8247 10.651 21.5571 10.2432 21.4636C9.77583 21.3617 9.35524 21.4636 8.97288 21.7483C8.94739 21.7738 8.91765 21.795 8.88367 21.812C8.87517 21.8077 8.86667 21.8035 8.86667 21.7992C8.85393 21.7568 8.84543 21.7143 8.83268 21.6718C8.7987 21.5656 8.75621 21.5273 8.64151 21.5273C8.51406 21.5273 8.38236 21.5316 8.2549 21.5273C8.15719 21.5231 8.06797 21.5358 8 21.6123C8 23.0993 8 24.5904 8.00425 26.0731C8.05948 26.1623 8.14445 26.1793 8.24216 26.1751C8.3951 26.1708 8.54804 26.1751 8.70098 26.1751C8.96863 26.1751 8.96863 26.1751 8.96863 25.9117V24.7009C8.96863 24.6712 8.95589 24.6372 8.98563 24.6117C9.19805 24.7774 9.4572 24.8793 9.72485 24.9048C10.0987 24.9431 10.4386 24.8496 10.7232 24.5947C10.9314 24.4035 11.0843 24.1571 11.1651 23.8852C11.2798 23.5368 11.2883 23.1842 11.2585 22.8274ZM10.2432 23.7068C10.2134 23.8385 10.1454 23.9574 10.0477 24.0466C9.93727 24.1401 9.80132 24.1953 9.65687 24.1953C9.4402 24.2081 9.22779 24.1614 9.03661 24.0594C8.98988 24.0381 8.96014 23.9914 8.96439 23.9404V23.1715C8.96439 22.9166 8.96863 22.6617 8.96439 22.4068C8.96014 22.3473 8.99412 22.2963 9.04935 22.2751C9.28301 22.1646 9.52517 22.1136 9.78008 22.1646C9.95851 22.1901 10.1115 22.3048 10.1837 22.4705C10.2474 22.6064 10.2856 22.7551 10.2941 22.9038C10.3196 23.1757 10.3196 23.4476 10.2432 23.7068Z" fill="white"/>
<path d="M41.9914 23.4901C41.9914 23.4859 41.9914 23.4859 41.9914 23.4901V23.4901ZM41.9956 22.9208V22.9378C41.9786 22.9208 41.9701 22.8953 41.9786 22.8741V22.8401C41.9786 22.8401 41.9786 22.8359 41.9829 22.8359H41.9786V22.7934H41.9871C41.9871 22.7891 41.9829 22.7891 41.9829 22.7849C41.9744 22.7042 41.9574 22.6234 41.9362 22.547C41.779 21.9862 41.4263 21.6166 40.8528 21.4721C40.5852 21.4084 40.3133 21.3999 40.0414 21.4424C39.4678 21.5274 39.0557 21.8332 38.8561 22.377C38.6606 22.8953 38.6649 23.4646 38.8603 23.9829C39.0303 24.4545 39.3701 24.7519 39.8587 24.8751C40.1178 24.9388 40.3897 24.9558 40.6574 24.9176C41.5496 24.8114 41.9192 24.1359 41.9786 23.5496H41.9744V23.4901C41.9701 23.4646 41.9659 23.4434 41.9914 23.4264V23.4349C41.9914 23.4306 41.9956 23.4221 41.9999 23.4179V22.9293C41.9999 22.9251 41.9956 22.9251 41.9956 22.9208ZM40.976 23.728C40.9505 23.8172 40.9123 23.898 40.8571 23.9744C40.7636 24.1061 40.6149 24.1911 40.4535 24.2038C40.3727 24.2123 40.292 24.2123 40.2113 24.1953C40.0329 24.1614 39.8842 24.0424 39.812 23.8767C39.7482 23.745 39.71 23.6006 39.6972 23.4561C39.676 23.2055 39.6718 22.9548 39.7312 22.7084C39.7525 22.6107 39.795 22.513 39.8459 22.428C39.9394 22.2751 40.1008 22.1774 40.2793 22.1646C40.36 22.1561 40.4407 22.1561 40.5214 22.1731C40.6914 22.2071 40.8316 22.3176 40.908 22.4747C40.9803 22.6234 41.0227 22.7891 41.0312 22.9548C41.0355 23.0313 41.0397 23.1078 41.0355 23.1842C41.0482 23.3712 41.027 23.5538 40.976 23.728ZM34.5482 20.0319H33.9577C33.7962 20.0319 33.7665 20.0617 33.7665 20.2231V21.5996C33.7665 21.6293 33.7792 21.6591 33.758 21.6888C33.7198 21.6845 33.6985 21.6591 33.6688 21.6421C33.227 21.3829 32.7639 21.3362 32.2966 21.5528C31.9694 21.7058 31.7655 21.9819 31.6338 22.3091C31.5064 22.6234 31.4766 22.9548 31.4851 23.2904C31.4851 23.6048 31.5573 23.915 31.6975 24.1953C31.859 24.5055 32.0926 24.7434 32.4325 24.8453C32.8956 24.9898 33.3289 24.9176 33.724 24.6244C33.7538 24.6074 33.7707 24.5777 33.809 24.5692C33.8302 24.6159 33.8472 24.6669 33.8557 24.7179C33.8727 24.7859 33.9322 24.8326 34.0044 24.8326H34.1064C34.2593 24.8326 34.408 24.8369 34.5567 24.8326C34.6756 24.8326 34.7096 24.7944 34.7139 24.6712V20.1934C34.7096 20.0617 34.6757 20.0319 34.5482 20.0319ZM33.7707 23.1587V23.9319C33.7792 23.9829 33.7495 24.0297 33.7028 24.0509C33.4988 24.1656 33.2652 24.2123 33.0358 24.1784C32.8403 24.1571 32.6704 24.0382 32.5812 23.864C32.5132 23.728 32.475 23.5836 32.4622 23.4349C32.4283 23.1672 32.4495 22.8953 32.5132 22.6362C32.5345 22.564 32.56 22.496 32.5982 22.428C32.6874 22.2623 32.8573 22.1561 33.0443 22.1434C33.2694 22.1221 33.4946 22.1646 33.6985 22.2581C33.7495 22.2751 33.7792 22.3261 33.775 22.3813C33.7665 22.6447 33.7707 22.8996 33.7707 23.1587Z" fill="white"/>
<path d="M22.7844 23.4518C23.1031 23.5113 23.4302 23.5156 23.7488 23.4646C23.9357 23.4391 24.1142 23.3839 24.2799 23.2946C24.471 23.1842 24.6112 23.0312 24.6707 22.8188C24.8194 22.2835 24.59 21.744 24.0335 21.5443C23.7616 21.4551 23.4727 21.4254 23.188 21.4636C22.5168 21.5401 22.0792 21.9097 21.8795 22.5512C21.7393 22.9888 21.7563 23.4348 21.871 23.8767C22.0197 24.4417 22.3936 24.7773 22.9586 24.8963C23.2815 24.9685 23.6086 24.9558 23.9315 24.9048C24.1014 24.875 24.2714 24.8326 24.4328 24.7688C24.5305 24.7306 24.5815 24.6711 24.5773 24.5607C24.573 24.4587 24.5773 24.3525 24.5773 24.2463C24.5773 24.1188 24.5263 24.0806 24.4031 24.1103C24.2799 24.1401 24.1609 24.1656 24.0377 24.1911C23.7743 24.2463 23.5024 24.2463 23.239 24.1996C22.8779 24.1273 22.6442 23.8172 22.6655 23.4348C22.7037 23.4391 22.7462 23.4433 22.7844 23.4518ZM22.6782 22.8018C22.691 22.6999 22.7207 22.6022 22.7589 22.5087C22.8864 22.1986 23.154 22.0924 23.4259 22.1093C23.5024 22.1136 23.5789 22.1306 23.6511 22.1603C23.7616 22.2071 23.8338 22.309 23.8465 22.428C23.8593 22.5002 23.855 22.5767 23.8338 22.6489C23.7828 22.8018 23.6596 22.8656 23.5109 22.8953C23.4217 22.9165 23.3282 22.925 23.2348 22.9165C23.0691 22.9165 22.8991 22.9038 22.7335 22.8783C22.6697 22.8698 22.6697 22.8698 22.6782 22.8018Z" fill="white"/>
<path d="M37.1143 23.4944C37.3607 23.4774 37.6071 23.4306 37.828 23.3117C38.0532 23.2012 38.2104 22.9931 38.2571 22.7466C38.2868 22.5937 38.2868 22.4323 38.2529 22.2793C38.1636 21.897 37.9215 21.6591 37.5561 21.5359C37.3522 21.4721 37.1355 21.4466 36.9231 21.4551C36.2094 21.4721 35.6656 21.8332 35.4447 22.547C35.296 23.0185 35.3172 23.4986 35.4617 23.9702C35.6104 24.4545 35.9502 24.7476 36.4345 24.8793C36.6427 24.9303 36.8594 24.9516 37.0718 24.9431C37.3819 24.9388 37.6921 24.8793 37.9852 24.7689C38.1084 24.7222 38.1382 24.6797 38.1382 24.548V24.2421C38.1339 24.1189 38.0829 24.0764 37.9597 24.1061C37.8663 24.1316 37.777 24.1529 37.6836 24.1741C37.3989 24.2421 37.1015 24.2548 36.8127 24.2038C36.5238 24.1486 36.3283 23.9829 36.2519 23.694C36.2306 23.6091 36.2136 23.5241 36.2051 23.4349C36.2264 23.4349 36.2476 23.4349 36.2646 23.4434C36.545 23.4944 36.8296 23.5156 37.1143 23.4944ZM36.2264 22.8146C36.2561 22.6489 36.2943 22.4875 36.3963 22.3515C36.5535 22.1434 36.7702 22.0839 37.0166 22.1094C37.0378 22.1094 37.0548 22.1179 37.0761 22.1179C37.3734 22.1646 37.4457 22.4025 37.3904 22.6319C37.3479 22.8019 37.2078 22.8656 37.0506 22.8953C36.9656 22.9123 36.8764 22.9208 36.7872 22.9166C36.613 22.9123 36.443 22.8996 36.2731 22.8741C36.2349 22.8699 36.2179 22.8529 36.2264 22.8146Z" fill="white"/>
</svg>
