<svg width="50" height="50" viewBox="0 0 50 50" fill="none" xmlns="http://www.w3.org/2000/svg">
<path d="M37.1202 24.1933V21.9597H38.6742V24.192H40.9999V25.6807H38.6742V27.9079H37.1202V25.6807H34.7881V24.1933H37.1202Z" fill="white"/>
<path d="M30.1814 22.569H31.1593C31.7481 22.569 32.1244 22.8736 32.1244 23.4048C32.1244 23.9834 31.7481 24.3597 31.1593 24.3597H30.1814V22.569ZM31.8646 25.5245C32.8771 25.3952 33.7129 24.5248 33.7129 23.4176C33.7129 21.9815 32.735 21.193 31.1593 21.193H28.616V28.4224H30.1827V25.5245L32.1257 28.4199H33.9382L31.8646 25.5245Z" fill="white"/>
<path d="M19.208 22.6163V21.1917H14.4387V22.6163H16.0285V28.4198H17.6195V22.6163H19.208Z" fill="white"/>
<path d="M11.496 23.8528C11.025 23.6403 10.847 23.406 10.847 23.1001C10.847 22.7456 11.1414 22.4512 11.6125 22.464C12.0234 22.4742 12.3434 22.6982 12.5674 23.2294L13.9216 22.6278C13.5466 21.664 12.7811 21.0995 11.5459 21.0995C10.239 21.0995 9.27392 21.9596 9.27392 23.1116C9.27392 23.9001 9.66304 24.5235 10.5808 24.9843L11.5933 25.4912C12.1565 25.7753 12.4291 25.9852 12.4291 26.3961C12.4291 26.8428 12.0656 27.1616 11.5933 27.1616C11.0864 27.1616 10.6282 26.8774 10.4157 26.2438L9 26.656C9.32896 27.8464 10.3069 28.5414 11.5792 28.5414C12.9565 28.5414 14.0163 27.6582 14.0163 26.3872C14.0163 25.4092 13.4877 24.7616 12.4726 24.3046L11.496 23.8528Z" fill="white"/>
<path d="M28.1911 23.4867H24.5226L23.3873 20L22.2519 23.4867H18.5847L21.5274 25.6461C21.5274 25.6461 22.9662 24.6989 24.7095 24.3418C22.138 26.24 20.7415 28.1229 20.7415 28.1229L20.4202 29.1354L23.3873 26.9811L26.3556 29.1354L25.2228 25.6461L28.1911 23.4867Z" fill="url(#paint0_linear_2_127)"/>
<defs>
<linearGradient id="paint0_linear_2_127" x1="20.0323" y1="28.7475" x2="26.7619" y2="22.024" gradientUnits="userSpaceOnUse">
<stop offset="0.28" stop-color="#FA1660"/>
<stop offset="0.78" stop-color="#FF7D17"/>
</linearGradient>
</defs>
</svg>
