<svg width="50" height="50" viewBox="0 0 50 50" fill="none" xmlns="http://www.w3.org/2000/svg">
<path d="M36.4775 30.4909C36.2453 31.7099 35.2585 32.6387 34.0395 32.8128C32.1239 33.1031 28.9313 33.4514 25.3323 33.4514C21.7914 33.4514 18.5987 33.1031 16.6251 32.8128C15.4061 32.6387 14.4192 31.7099 14.187 30.4909C13.9548 29.1558 13.7227 27.1822 13.7227 24.7442C13.7227 22.3061 13.9548 20.3325 14.187 18.9974C14.4192 17.7784 15.4061 16.8496 16.6251 16.6755C18.5407 16.3852 21.7333 16.0369 25.3323 16.0369C28.9313 16.0369 32.0659 16.3852 34.0395 16.6755C35.2585 16.8496 36.2453 17.7784 36.4775 18.9974C36.7097 20.3325 37 22.3061 37 24.7442C36.9419 27.1822 36.7097 29.1558 36.4775 30.4909Z" fill="#FF3D00"/>
<path d="M23.0104 28.8075V20.6808L29.9762 24.7442L23.0104 28.8075Z" fill="white"/>
</svg>
