<svg width="102" height="22" viewBox="0 0 102 22" fill="none" xmlns="http://www.w3.org/2000/svg">
<path fill-rule="evenodd" clip-rule="evenodd" d="M10.5238 0C4.71166 0 0 4.92487 0 11C0 17.0751 4.71166 22 10.5238 22H11.7381C15.1679 22 18.2146 20.2849 20.1359 17.6305C21.8724 20.2849 24.6261 22 27.7262 22C30.1299 22 32.3255 20.9689 34 19.2682V21.5769H39.0595V10.5769C39.2619 5.5 42.1377 4.86538 43.3095 4.86538C44.4813 4.86538 46.75 5.28846 46.75 10.5769V21.5769H51.8095C51.8095 21.5769 51.8095 11.8462 51.8095 10.5769C51.8095 9.30769 52.0119 5.07692 55.8571 4.86538C59.7024 4.65385 59.5 9.51923 59.5 9.51923V21.3654H64.5595V17.1874C66.4538 20.0925 69.6447 22 73.2619 22H73.6667C77.2223 22 80.366 20.1569 82.2712 17.3349L78.1193 15.2308C78.1193 15.2308 75.488 18.4038 71.036 16.9231C67.7976 15.6538 67.5955 12.4808 67.5955 12.4808H81.0469C81.7388 17.8556 86.1445 22 91.4762 22C97.2883 22 102 17.0751 102 11C102 4.92487 97.2883 0 91.4762 0C87.7269 0 84.4355 2.04942 82.5714 5.13499C80.7074 2.04942 77.416 0 73.6667 0H73.2619C69.6114 0 66.3949 1.94284 64.5074 4.89326C64.2266 3.98313 62.721 0 57.881 0C53.2262 0 51 3.80769 51 3.80769C51 3.80769 49.1786 0 45.3333 0C41.0833 0 39.0595 2.96154 39.0595 2.96154V0.423077H34V2.73178C32.3255 1.03113 30.1299 0 27.7262 0C24.6261 0 21.8724 1.71506 20.1359 4.36948C18.2146 1.71506 15.1679 0 11.7381 0H10.5238ZM28.9405 16.9231C31.2266 16.9231 33.1848 15.4013 34 13.2413V8.7587C33.1848 6.59869 31.2266 5.07692 28.9405 5.07692C25.9226 5.07692 23.4762 7.72877 23.4762 11C23.4762 14.2712 25.9226 16.9231 28.9405 16.9231ZM19.5305 5.41362L16.2122 7.36463C15.1753 5.97244 13.5567 5.07692 11.7381 5.07692H10.9285C7.79894 5.07692 5.26189 7.72877 5.26189 11C5.26189 14.2712 7.79894 16.9231 10.9285 16.9231H11.7381C13.5409 16.9231 15.1471 16.0431 16.185 14.6716L19.9949 17.4094C18.8742 15.6047 18.2143 13.3915 18.2143 11C18.2143 8.96066 18.6942 7.05094 19.5305 5.41362ZM67.7976 8.46154C67.7976 8.46154 68.8095 4.44231 73.2619 4.44231C77.7143 4.44231 78.7262 8.46154 78.7262 8.46154H67.7976ZM86.0524 10.7039C86.0524 7.54947 88.4988 4.99233 91.5167 4.99233C94.5345 4.99233 96.9809 7.54947 96.9809 10.7039V11.3385C96.9809 14.4929 94.5345 17.05 91.5167 17.05C88.4988 17.05 86.0524 14.4929 86.0524 11.3385V10.7039Z" fill="white"/>
</svg>
