<svg width="252" height="52" viewBox="0 0 252 52" fill="none" xmlns="http://www.w3.org/2000/svg">
<path fill-rule="evenodd" clip-rule="evenodd" d="M25.9999 0C11.6406 0 0 11.6406 0 26C0 40.3594 11.6406 52 26 52H28.9999C37.4738 52 45.0007 47.9462 49.7474 41.6721C54.0377 47.9462 60.841 52 68.5 52C74.4387 52 79.8629 49.5628 84 45.5431V51H96.5V25C97 13 104.105 11.5 107 11.5C109.895 11.5 115.5 12.5 115.5 25V51H128C128 51 128 28 128 25C128 22 128.5 12 138 11.5C147.5 11 147 22.5 147 22.5V50.5H159.5V40.6247C164.18 47.4914 172.063 52 181 52H182C190.784 52 198.551 47.6436 203.258 40.9733L193.001 36C193.001 36 186.5 43.5 175.501 40C167.5 37 167.001 29.5 167.001 29.5H200.234C201.943 42.2043 212.828 52 226 52C240.359 52 252 40.3594 252 26C252 11.6406 240.359 0 226 0C216.737 0 208.605 4.84409 204 12.1373C199.395 4.84409 191.263 0 182 0H181C171.981 0 164.035 4.59217 159.371 11.5659C158.677 9.41466 154.958 0 143 0C131.5 0 126 9 126 9C126 9 121.5 0 112 0C101.5 0 96.5 7 96.5 7V1H84V6.45693C79.8629 2.43722 74.4387 0 68.5 0C60.841 0 54.0377 4.05379 49.7474 10.3279C45.0007 4.05379 37.4737 0 28.9999 0H25.9999ZM71.5 40C77.148 40 81.986 36.4031 84 31.2976V20.7024C81.986 15.5969 77.148 12 71.5 12C64.0442 12 58 18.268 58 26C58 33.732 64.0442 40 71.5 40ZM48.2518 12.7958L40.0536 17.4073C37.4919 14.1167 33.4931 12 28.9999 12H26.9999C19.268 12 13 18.268 13 26C13 33.732 19.268 40 26.9999 40H28.9999C33.4541 40 37.4224 37.92 39.9865 34.6782L49.3992 41.1495C46.6304 36.8838 45 31.6526 45 26C45 21.1797 46.1856 16.6659 48.2518 12.7958ZM167.5 20C167.5 20 170 10.5 181 10.5C192 10.5 194.5 20 194.5 20H167.5ZM212.6 25.3C212.6 17.8442 218.644 11.8 226.1 11.8C233.556 11.8 239.6 17.8442 239.6 25.3V26.8C239.6 34.2559 233.556 40.3 226.1 40.3C218.644 40.3 212.6 34.2559 212.6 26.8V25.3Z" fill="white"/>
</svg>
