<svg width="127" height="237" viewBox="0 0 127 237" fill="none" xmlns="http://www.w3.org/2000/svg">
<g clip-path="url(#clip0_162_1633)">
<mask id="mask0_162_1633" style="mask-type:luminance" maskUnits="userSpaceOnUse" x="0" y="0" width="127" height="237">
<path d="M0 0C28.41 0.01 56.82 0.02 85.23 0.03V124.12C99.15 133.72 113.08 143.32 127 152.92C127 180.95 127 208.97 127 237H0V0Z" fill="white"/>
</mask>
<g mask="url(#mask0_162_1633)">
<path d="M112.5 68.38L86.82 0C-0.859993 46.24 -4.10999 111 1.91001 135.2C9.61001 166.14 33.28 187.17 60.89 193.06C79.6 197.05 101.33 193.48 109.69 208.41C118.04 223.34 105.97 229.75 106.27 235.01C106.78 243.66 137.46 222.97 123.15 195.94C108.84 168.91 79.5 182.6 60.48 144.48C40.1 103.61 101.65 74.18 101.65 74.18C105.69 72.9 109.28 70.91 112.48 68.38H112.5Z" fill="#1AF5EB"/>
<path d="M41.4501 90.0399C52.0201 90.0399 60.5801 81.5099 60.5801 70.9799C60.5801 60.4499 52.0201 51.9199 41.4501 51.9199C30.8801 51.9199 22.3201 60.4499 22.3201 70.9799C22.3201 81.5099 30.8801 90.0399 41.4501 90.0399Z" fill="#2BA8E2"/>
<path d="M54.83 185.43C52.68 186.23 51.35 188.13 51.04 190.24C54.26 191.39 57.55 192.34 60.9 193.05C66.44 194.23 72.24 194.75 77.89 195.28C78.54 193.24 78.57 190.99 77.76 188.83C75.83 183.7 70.09 181.09 64.94 183.01C63.11 183.69 61.61 184.87 60.51 186.32C58.91 185.14 56.83 184.67 54.83 185.42V185.43Z" fill="#2BA8E2"/>
<path d="M41.32 136.47C35.48 120.92 18.09 113.03 2.48005 118.84C1.64005 119.15 0.840049 119.51 0.0500488 119.89C0.190049 125.93 0.910049 131.14 1.92005 135.19C5.91005 151.21 14.2 164.55 25.08 174.53C39.71 168.2 46.97 151.52 41.32 136.47Z" fill="#2BA8E2"/>
<path d="M91.6599 185.46C93.8899 185.46 95.6899 183.66 95.6899 181.45C95.6899 179.24 93.8899 177.44 91.6599 177.44C89.4299 177.44 87.6299 179.24 87.6299 181.45C87.6299 183.66 89.4299 185.46 91.6599 185.46Z" fill="#2BA8E2"/>
<path d="M54.41 171.35C55.19 173.43 57.51 174.48 59.59 173.7C61.68 172.92 62.73 170.61 61.95 168.54C61.95 168.54 61.95 168.53 61.94 168.52C61.98 168.51 62.02 168.52 62.07 168.5C65.52 167.21 67.27 163.39 65.98 159.95C64.69 156.51 60.85 154.77 57.4 156.05C53.95 157.33 52.2 161.16 53.49 164.6C53.88 165.64 54.55 166.46 55.33 167.16C54.27 168.24 53.85 169.85 54.41 171.36V171.35Z" fill="#2BA8E2"/>
<path d="M90.9101 10.8799C89.9401 11.0799 88.9801 11.3599 88.0301 11.7099C82.7401 13.6799 78.8201 17.6799 76.7901 22.4899C74.9801 22.2199 73.0901 22.3899 71.2601 23.0699C65.5001 25.2199 62.5801 31.5999 64.7401 37.3399C66.8901 43.0699 73.3101 45.9799 79.0601 43.8399C79.5001 43.6699 79.9301 43.4799 80.3401 43.2599C85.6001 49.0499 94.0501 51.3799 101.84 48.4799C102.79 48.1199 103.7 47.7099 104.56 47.2299L90.9101 10.8799Z" fill="#2BA8E2"/>
<path d="M104.16 184.01C104.55 185.05 105.71 185.57 106.75 185.19C107.79 184.8 108.32 183.65 107.93 182.61C107.54 181.57 106.38 181.05 105.34 181.43C104.3 181.82 103.77 182.97 104.16 184.01Z" fill="#2BA8E2"/>
<path d="M67.9899 50.4504C66.2599 51.0904 65.3899 53.0104 66.0299 54.7304C66.6799 56.4504 68.5999 57.3204 70.3199 56.6804C72.0499 56.0404 72.9199 54.1204 72.2799 52.4004C71.6299 50.6804 69.7099 49.8104 67.9899 50.4504Z" fill="#2BA8E2"/>
<path d="M83.4099 182.24C84.5199 182.24 85.4199 181.34 85.4199 180.23C85.4199 179.12 84.5199 178.22 83.4099 178.22C82.2999 178.22 81.3999 179.12 81.3999 180.23C81.3999 181.34 82.2999 182.24 83.4099 182.24Z" fill="#2BA8E2"/>
<path d="M43.97 40.5103C52.75 37.2403 57.66 28.2404 56.08 19.3604C46.73 26.4104 38.81 33.6704 32.2 40.9804C35.95 42.0104 40.05 41.9704 43.97 40.5004V40.5103Z" fill="#2BA8E2"/>
<path d="M74.74 70.0495C76.03 73.4895 79.87 75.2295 83.32 73.9495C86.77 72.6695 88.52 68.8395 87.23 65.3995C85.94 61.9595 82.1 60.2195 78.65 61.4995C75.2 62.7795 73.45 66.6095 74.74 70.0495Z" fill="#2BA8E2"/>
<path d="M45.76 125.05C47.84 130.59 52.26 134.51 57.46 136.3C53.91 122.23 59.62 109.8 68.02 99.8202C64.47 98.9902 60.65 99.1602 56.98 100.52C47.09 104.21 42.06 115.19 45.76 125.04V125.05Z" fill="#2BA8E2"/>
<path d="M120.61 200.06C119.68 197.58 116.91 196.33 114.42 197.25C114.16 197.35 113.98 197.53 113.75 197.66C113.23 196.95 112.31 196.63 111.45 196.95C110.41 197.34 109.88 198.49 110.27 199.53C110.49 200.11 110.95 200.51 111.5 200.7C111.3 201.58 111.26 202.5 111.6 203.41C112.53 205.89 115.3 207.14 117.79 206.22C120.28 205.29 121.54 202.54 120.61 200.06Z" fill="#2BA8E2"/>
<path d="M112.91 235.46C112.91 235.46 117.51 233.41 120.19 231.25L122.6 231.02C122.6 231.02 124.5 228.98 125.36 226.84L124.76 225.24C124.76 225.24 127.52 219.05 126.93 211.81C126.93 211.81 124.8 222.45 119.79 228.42C114.61 234.59 111.23 234.78 112.91 235.47V235.46Z" fill="#FF9EEA"/>
<g opacity="0.57">
<path d="M109.02 236.22C108.71 230.97 120.79 224.56 112.44 209.62C109.79 204.89 105.79 202.02 100.98 200.17C104.57 202.01 107.58 204.6 109.71 208.4C118.06 223.33 105.99 229.74 106.29 234.99C106.39 236.61 107.54 237.21 109.27 236.91C109.18 236.68 109.05 236.5 109.03 236.2L109.02 236.22Z" fill="#00FBDE"/>
<path d="M103.75 178.61C99.75 176.79 95.55 175.21 91.29 173.38C95.51 175.33 99.71 176.91 103.75 178.61Z" fill="#00FBDE"/>
<path d="M87.68 2.27L86.82 0C-0.859993 46.24 -4.10999 111 1.91001 135.2C8.30001 160.87 25.7 179.69 47.21 188.73C26.97 179.28 10.76 160.99 4.65001 136.42C-1.32999 112.4 1.88 48.42 87.68 2.27Z" fill="#00FBDE"/>
</g>
<g opacity="0.3">
<path d="M45.43 161.94C23.79 149.44 19.99 123.91 26.99 101.75C29.38 94.1799 18.01 88.9299 15.6 96.5799C6.37996 125.76 12.17 157.08 40.24 173.3C47.22 177.33 52.35 165.95 45.43 161.95V161.94Z" fill="white"/>
<path d="M27.5399 78.0898C19.9899 80.8998 24.3699 92.5898 31.9299 89.7698C39.4799 86.9598 35.0999 75.2698 27.5399 78.0898Z" fill="white"/>
</g>
</g>
</g>
<defs>
<clipPath id="clip0_162_1633">
<rect width="127" height="237" fill="white"/>
</clipPath>
</defs>
</svg>
