<svg width="129" height="284" viewBox="0 0 129 284" fill="none" xmlns="http://www.w3.org/2000/svg">
<mask id="mask0_162_1603" style="mask-type:luminance" maskUnits="userSpaceOnUse" x="0" y="0" width="129" height="283">
<path d="M128.52 0H0.26001V282.96H128.52V0Z" fill="white"/>
</mask>
<g mask="url(#mask0_162_1603)">
<path d="M-18 197.45L-5.23001 284.35C109.21 252.08 129.42 176.71 128.49 146.73C127.3 108.4 104.89 77.6904 74.03 63.8004C53.12 54.3904 26.75 53.1104 20.74 33.4304C14.73 13.7504 30.51 9.27042 31.47 3.01042C33.06 -7.29958 -8.12001 9.31042 1.79999 44.7104C11.73 80.1104 49.57 71.4104 62.2 121.04C75.73 174.25 -3.84001 193.34 -3.84001 193.34C-8.90001 193.82 -13.61 195.26 -18.01 197.43L-18 197.45Z" fill="#1AF5EB"/>
<path d="M65.91 235.23C78.5739 235.23 88.84 224.964 88.84 212.3C88.84 199.636 78.5739 189.37 65.91 189.37C53.2461 189.37 42.98 199.636 42.98 212.3C42.98 224.964 53.2461 235.23 65.91 235.23Z" fill="#2BA8E2"/>
<path d="M79.1998 74.3104C81.9198 73.9104 83.9698 72.0104 84.8598 69.6104C81.3898 67.4404 77.7698 65.5004 74.0198 63.8104C67.8298 61.0204 61.1598 58.9504 54.6798 56.9004C53.3998 59.1404 52.7898 61.7804 53.1998 64.5204C54.1598 71.0404 60.2198 75.5504 66.7498 74.5904C69.0698 74.2504 71.1198 73.2404 72.7798 71.8104C74.3498 73.6004 76.6698 74.6704 79.2098 74.3004L79.1998 74.3104Z" fill="#2BA8E2"/>
<path d="M82.6499 135.3C85.5599 155.06 103.93 168.73 123.7 165.83C124.76 165.67 125.79 165.45 126.82 165.21C128.19 158.07 128.65 151.76 128.5 146.74C127.88 126.89 121.54 109.11 111.31 94.6299C92.5699 98.3899 79.8399 116.18 82.6499 135.31V135.3Z" fill="#2BA8E2"/>
<path d="M35.04 74.5399C37.7075 74.5399 39.87 72.3774 39.87 69.7099C39.87 67.0423 37.7075 64.8799 35.04 64.8799C32.3724 64.8799 30.21 67.0423 30.21 69.7099C30.21 72.3774 32.3724 74.5399 35.04 74.5399Z" fill="#2BA8E2"/>
<path d="M76.13 90.9798C75.74 88.3398 73.29 86.5198 70.65 86.8998C68.01 87.2798 66.19 89.7398 66.57 92.3798C66.57 92.3898 66.57 92.3998 66.58 92.4098C66.53 92.4098 66.48 92.3898 66.43 92.4098C62.06 93.0498 59.04 97.1098 59.68 101.48C60.32 105.85 64.38 108.87 68.75 108.23C73.12 107.59 76.14 103.53 75.5 99.1598C75.31 97.8398 74.72 96.6998 73.99 95.6898C75.5 94.6898 76.4 92.8998 76.12 90.9798H76.13Z" fill="#2BA8E2"/>
<path d="M-7.26004 270.53C-6.08004 270.53 -4.88004 270.45 -3.68004 270.28C3.01996 269.3 8.61996 265.58 12.22 260.44C14.27 261.21 16.53 261.49 18.85 261.15C26.14 260.08 31.18 253.3 30.11 246.01C29.04 238.72 22.26 233.68 14.97 234.75C14.41 234.83 13.86 234.96 13.33 235.11C8.62996 226.98 -0.680039 222.1 -10.54 223.55C-11.74 223.73 -12.91 223.99 -14.04 224.34L-7.25004 270.53H-7.26004Z" fill="#2BA8E2"/>
<path d="M21.0399 63.5397C20.8499 62.2197 19.6199 61.3097 18.2999 61.4997C16.9799 61.6897 16.0699 62.9197 16.2599 64.2397C16.4499 65.5597 17.6799 66.4697 18.9999 66.2797C20.3199 66.0897 21.2299 64.8597 21.0399 63.5397Z" fill="#2BA8E2"/>
<path d="M29.6099 229.76C31.7899 229.44 33.3099 227.41 32.9799 225.22C32.6499 223.03 30.6299 221.52 28.4399 221.85C26.2499 222.18 24.7399 224.2 25.0699 226.39C25.3999 228.58 27.4199 230.09 29.6099 229.76Z" fill="#2BA8E2"/>
<path d="M44.41 75.6296C45.741 75.6296 46.82 74.5506 46.82 73.2196C46.82 71.8886 45.741 70.8096 44.41 70.8096C43.079 70.8096 42 71.8886 42 73.2196C42 74.5506 43.079 75.6296 44.41 75.6296Z" fill="#2BA8E2"/>
<path d="M55.2399 247.51C44.1299 249.14 36.1 258.5 35.7 269.33C48.45 263.39 59.55 256.85 69.16 249.92C65.02 247.76 60.22 246.78 55.25 247.51H55.2399Z" fill="#2BA8E2"/>
<path d="M26.67 205C26.03 200.63 21.96 197.61 17.6 198.25C13.24 198.89 10.21 202.95 10.85 207.32C11.49 211.69 15.56 214.71 19.92 214.07C24.28 213.43 27.31 209.37 26.67 205Z" fill="#2BA8E2"/>
<path d="M74.5501 147.61C73.5201 140.57 69.3301 134.84 63.6901 131.42C64.2901 148.86 54.4501 162.04 42.0801 171.67C46.0301 173.54 50.5501 174.31 55.2001 173.63C67.7301 171.79 76.3901 160.14 74.5501 147.61Z" fill="#2BA8E2"/>
<path d="M5.83006 40.51C6.29006 43.66 9.22006 45.83 12.3701 45.37C12.6901 45.32 12.9501 45.15 13.2601 45.05C13.6901 46.01 14.6801 46.63 15.7801 46.47C17.1001 46.28 18.0101 45.05 17.8201 43.73C17.7101 42.99 17.2601 42.41 16.6701 42.05C17.1301 41.06 17.4101 39.99 17.2401 38.83C16.7801 35.68 13.8501 33.5 10.7001 33.97C7.55006 34.44 5.38006 37.36 5.84006 40.51H5.83006Z" fill="#2BA8E2"/>
<path d="M23.8299 0.810781C23.8299 0.810781 17.9299 2.07078 14.2399 3.93078L11.3599 3.59078C11.3599 3.59078 8.61993 5.51078 7.06993 7.82078L7.36993 9.85078C7.36993 9.85078 2.56993 16.4408 1.42993 25.1008C1.42993 25.1008 6.61993 13.1208 13.9999 7.36078C21.6299 1.41078 25.6399 2.04078 23.8399 0.800781L23.8299 0.810781Z" fill="#FF9EEA"/>
<g opacity="0.57">
<path d="M28.57 0.900742C27.6 7.16074 11.83 11.6507 17.84 31.3207C19.75 37.5607 23.71 41.9407 28.88 45.3207C25.13 42.2607 22.27 38.4507 20.74 33.4407C14.73 13.7707 30.51 9.28074 31.47 3.02074C31.77 1.09074 30.56 0.100742 28.47 0.0107422C28.51 0.300742 28.62 0.550742 28.57 0.910742V0.900742Z" fill="#00FBDE"/>
<path d="M20.1602 69.9912C24.3902 73.1412 28.9002 76.0612 33.4402 79.2912C28.9802 75.9312 24.4702 73.0112 20.1602 69.9912Z" fill="#00FBDE"/>
<path d="M-5.6499 281.48L-5.2299 284.36C109.21 252.09 129.42 176.72 128.49 146.74C127.5 114.94 111.88 88.4104 88.9701 72.3604C110.29 88.5804 124.65 114.18 125.6 144.62C126.52 174.37 106.58 248.82 -5.6399 281.48H-5.6499Z" fill="#00FBDE"/>
</g>
<g opacity="0.3">
<path d="M84.2799 104.31C106.47 124.47 104.46 155.45 90.6499 179.76C85.9299 188.06 97.9199 197.11 102.69 188.72C120.88 156.72 122.02 118.42 93.2399 92.2703C86.0899 85.7703 77.1899 97.8603 84.2799 104.31Z" fill="white"/>
<path d="M84.01 207.451C93.56 206.051 91.4 191.201 81.83 192.601C72.28 194.001 74.44 208.851 84.01 207.451Z" fill="white"/>
</g>
</g>
</svg>
