<svg width="33" height="32" viewBox="0 0 33 32" fill="none" xmlns="http://www.w3.org/2000/svg">
<path d="M7.16924 12.9171C7.16928 7.98887 11.1472 3.99829 16.0486 3.99829C20.95 3.99829 24.9279 7.9889 24.9279 12.9172C24.9281 14.0635 25.0044 14.9287 25.5277 15.7063C25.7269 15.998 26.1041 16.4912 26.3552 16.8878C26.6367 17.332 26.9116 17.8677 27.0061 18.4918C27.3144 20.5282 25.893 21.8468 24.4774 22.4375C19.4914 24.5185 12.6058 24.5185 7.61981 22.4375C6.20421 21.8468 4.7828 20.5282 5.09114 18.4918C5.18565 17.8677 5.46058 17.332 5.74197 16.8878C5.99321 16.4911 6.37045 15.9979 6.56959 15.7063C7.09282 14.9287 7.16914 14.0634 7.16924 12.9171Z" fill="#2BA8E2"/>
<path opacity="0.4" d="M19.0142 26.8846C18.1569 27.591 17.1373 27.9983 16.0486 27.9983C14.9599 27.9983 13.9403 27.591 13.083 26.8846C12.3221 26.2578 11.9416 25.9444 12.0748 25.4235C12.2079 24.9025 12.7329 24.9608 13.7828 25.0775C15.2844 25.2442 16.8127 25.2442 18.3143 25.0775C19.3643 24.9608 19.8893 24.9025 20.0224 25.4235C20.1555 25.9444 19.7751 26.2578 19.0142 26.8846Z" fill="#2BA8E2"/>
</svg>
