<svg width="33" height="32" viewBox="0 0 33 32" fill="none" xmlns="http://www.w3.org/2000/svg">
<path fill-rule="evenodd" clip-rule="evenodd" d="M16.0976 2.77313C10.7408 2.77313 6.39817 7.11573 6.39817 12.4726C6.39817 17.8295 10.7408 22.1721 16.0976 22.1721C21.4545 22.1721 25.7971 17.8295 25.7971 12.4726C25.7971 7.11573 21.4545 2.77313 16.0976 2.77313ZM17.7353 9.59026L16.5716 7.20512C16.3742 6.80065 15.8211 6.80065 15.6237 7.20512L14.46 9.59026C14.3828 9.74856 14.2377 9.85875 14.0698 9.8867L11.5403 10.3075C11.1116 10.3788 10.9408 10.9275 11.2473 11.2486L13.0581 13.1452C13.1781 13.2708 13.2334 13.4487 13.2069 13.624L12.8078 16.2709C12.7402 16.7191 13.1877 17.0584 13.5748 16.8524L15.8562 15.6384C16.0079 15.5577 16.1874 15.5577 16.3391 15.6384L18.6205 16.8524C19.0076 17.0584 19.455 16.7191 19.3875 16.2709L18.9883 13.624C18.9619 13.4487 19.0173 13.2708 19.1372 13.1452L20.948 11.2486C21.2545 10.9275 21.0837 10.3788 20.655 10.3075L18.1255 9.8867C17.9576 9.85875 17.8125 9.74856 17.7353 9.59026Z" fill="#F314FB"/>
<path opacity="0.4" d="M7.56347 20.2272L5.61438 23.8874C5.43745 24.2194 5.26756 24.5384 5.16802 24.8046C5.10017 24.986 5.01154 25.2741 5.06556 25.5905C5.07094 25.6976 5.09683 25.7805 5.1137 25.8266C5.16749 25.9733 5.35987 26.1909 5.49454 26.2786C5.84104 26.5041 6.281 26.5727 6.65836 26.5825C7.06849 26.5931 7.54435 26.5378 8.06673 26.4085C8.50775 26.2992 8.77116 26.2351 8.97057 26.205C9.20141 26.1603 9.3065 26.2797 9.3302 26.345C9.4172 26.4957 9.51179 26.711 9.67377 27.0854C9.90422 27.6179 10.1552 28.0753 10.4256 28.4222C10.657 28.7192 11.0561 29.1383 11.6457 29.218C11.7418 29.231 11.8396 29.2303 11.9355 29.216C12.5965 29.1173 12.9265 28.6236 13.088 28.3432C13.264 28.0376 13.4363 27.6191 13.6249 27.1614L15.0489 23.7056C12.0739 23.4624 9.42975 22.1664 7.56347 20.2272Z" fill="#F314FB"/>
<path opacity="0.4" d="M17.0489 23.7056L18.473 27.1614C18.6615 27.619 18.8338 28.0376 19.0098 28.3431C19.1714 28.6236 19.5014 29.1173 20.1624 29.216C20.2582 29.2303 20.3561 29.231 20.4522 29.2179C21.0417 29.1382 21.4409 28.7191 21.6722 28.4221C21.9427 28.0752 22.1936 27.618 22.424 27.0853C22.586 26.711 22.6806 26.4957 22.7676 26.345C22.7913 26.2797 22.8964 26.1603 23.1272 26.205C23.3266 26.2352 23.5901 26.2993 24.031 26.4085C24.5535 26.5379 25.0293 26.5932 25.4394 26.5826C25.8168 26.5728 26.2567 26.5041 26.6032 26.2786C26.738 26.191 26.9303 25.9733 26.9841 25.8266C27.0009 25.7805 27.0269 25.6976 27.0322 25.5906C27.0862 25.2742 26.9977 24.9861 26.9298 24.8046C26.8303 24.5385 26.6604 24.2196 26.4834 23.8874L24.5342 20.2272C22.668 22.1664 20.0238 23.4624 17.0489 23.7056Z" fill="#F314FB"/>
</svg>
