<svg width="32" height="33" viewBox="0 0 32 33" fill="none" xmlns="http://www.w3.org/2000/svg">
<path d="M21.2336 26.9661L5.97622 11.7087C4.08633 9.81877 0.854904 11.1573 0.854904 13.83V29.0874C0.854904 30.7443 2.19805 32.0874 3.8549 32.0874H19.1123C21.785 32.0874 23.1235 28.856 21.2336 26.9661Z" fill="#F5C675"/>
<rect x="5.81742" y="21.7499" width="25.1376" height="9.20002" rx="2.5" stroke="#F5C675"/>
<mask id="mask0_12_1283" style="mask-type:alpha" maskUnits="userSpaceOnUse" x="5" y="21" width="27" height="11">
<rect x="5.31742" y="21.2499" width="26.1376" height="10.2" rx="3" fill="#D9D9D9"/>
</mask>
<g mask="url(#mask0_12_1283)">
<path fill-rule="evenodd" clip-rule="evenodd" d="M13.4091 31.76L27.4341 19.6475L29.1008 21.5774L15.0758 33.6899L13.4091 31.76Z" fill="#F5C675"/>
<path fill-rule="evenodd" clip-rule="evenodd" d="M23.6091 31.76L37.6341 19.6475L39.3008 21.5774L25.2758 33.6899L23.6091 31.76Z" fill="#F5C675"/>
<path fill-rule="evenodd" clip-rule="evenodd" d="M3.20904 31.76L17.2341 19.6475L18.9008 21.5774L4.87577 33.6899L3.20904 31.76Z" fill="#F5C675"/>
</g>
<rect x="2.26876" y="12.6543" width="27.8019" height="9.20002" rx="2.5" transform="rotate(-25.3264 2.26876 12.6543)" stroke="#F5C675"/>
<mask id="mask1_12_1283" style="mask-type:alpha" maskUnits="userSpaceOnUse" x="2" y="1" width="30" height="20">
<rect x="1.56925" y="12.4324" width="28.8393" height="10.2" rx="3" transform="rotate(-25.3264 1.56925 12.4324)" fill="#D9D9D9"/>
</mask>
<g mask="url(#mask1_12_1283)">
<path fill-rule="evenodd" clip-rule="evenodd" d="M15.8211 17.3151L23.3167 0.367218L25.6488 1.39864L18.1532 18.3465L15.8211 17.3151Z" fill="#F5C675"/>
<path fill-rule="evenodd" clip-rule="evenodd" d="M25.0407 12.9518L32.5364 -3.99606L34.8685 -2.96464L27.3728 13.9832L25.0407 12.9518Z" fill="#F5C675"/>
<path fill-rule="evenodd" clip-rule="evenodd" d="M6.60147 21.6784L14.0971 4.73056L16.4292 5.76199L8.93357 22.7099L6.60147 21.6784Z" fill="#F5C675"/>
</g>
</svg>
