<svg width="25" height="24" viewBox="0 0 25 24" fill="none" xmlns="http://www.w3.org/2000/svg">
<path d="M18.5488 22C17.7154 22 17.0071 21.7083 16.4238 21.125C15.8404 20.5417 15.5488 19.8333 15.5488 19C15.5488 18.8833 15.5571 18.7625 15.5738 18.6375C15.5904 18.5125 15.6154 18.4 15.6488 18.3L8.59877 14.2C8.31543 14.45 7.99877 14.6458 7.64877 14.7875C7.29877 14.9292 6.9321 15 6.54877 15C5.71543 15 5.0071 14.7083 4.42377 14.125C3.84043 13.5417 3.54877 12.8333 3.54877 12C3.54877 11.1667 3.84043 10.4583 4.42377 9.875C5.0071 9.29167 5.71543 9 6.54877 9C6.9321 9 7.29877 9.07083 7.64877 9.2125C7.99877 9.35417 8.31543 9.55 8.59877 9.8L15.6488 5.7C15.6154 5.6 15.5904 5.4875 15.5738 5.3625C15.5571 5.2375 15.5488 5.11667 15.5488 5C15.5488 4.16667 15.8404 3.45833 16.4238 2.875C17.0071 2.29167 17.7154 2 18.5488 2C19.3821 2 20.0904 2.29167 20.6738 2.875C21.2571 3.45833 21.5488 4.16667 21.5488 5C21.5488 5.83333 21.2571 6.54167 20.6738 7.125C20.0904 7.70833 19.3821 8 18.5488 8C18.1654 8 17.7988 7.92917 17.4488 7.7875C17.0988 7.64583 16.7821 7.45 16.4988 7.2L9.44877 11.3C9.4821 11.4 9.5071 11.5125 9.52377 11.6375C9.54043 11.7625 9.54877 11.8833 9.54877 12C9.54877 12.1167 9.54043 12.2375 9.52377 12.3625C9.5071 12.4875 9.4821 12.6 9.44877 12.7L16.4988 16.8C16.7821 16.55 17.0988 16.3542 17.4488 16.2125C17.7988 16.0708 18.1654 16 18.5488 16C19.3821 16 20.0904 16.2917 20.6738 16.875C21.2571 17.4583 21.5488 18.1667 21.5488 19C21.5488 19.8333 21.2571 20.5417 20.6738 21.125C20.0904 21.7083 19.3821 22 18.5488 22Z" fill="white"/>
</svg>
