<svg width="25" height="25" viewBox="0 0 25 25" fill="none" xmlns="http://www.w3.org/2000/svg">
<path fill-rule="evenodd" clip-rule="evenodd" d="M12.7715 24.9836C5.83203 24.9836 0.1875 19.3794 0.1875 12.4907C0.1875 5.60352 5.83301 0 12.7715 0C15.5898 0 18.2764 0.92334 20.4551 2.59424L20.4697 2.5752C24.8691 6.05493 24.9854 9.78101 24.6621 11.6931C24.168 14.6182 22.001 17.2952 19.3906 18.2036C18.8242 18.4055 18.2275 18.5107 17.626 18.5149C16.54 18.5149 15.5352 18.144 14.7363 17.4221C14.5332 17.2388 14.373 17.002 14.248 16.7219C13.3945 17.9368 12.1387 18.6277 10.6914 18.6277C10.4316 18.6277 10.165 18.6062 9.89258 18.5637C9.64551 18.5254 9.39355 18.4697 9.13867 18.397C7.52344 17.9353 6.30176 16.594 5.87305 14.8091C5.29395 12.4055 6.18848 9.74292 8.20605 7.86084C9.97266 6.21484 12.3799 5.86963 14.0898 5.86963C15.5225 5.86963 16.5947 6.10815 16.6387 6.1189L17.7617 6.3728L17.4238 7.4729C17.4033 7.53979 17.2705 7.97119 17.0762 8.60107L17.0967 8.60693C16.1826 11.7925 15.749 15.2498 16.1865 15.8601C16.9775 16.571 17.9873 16.4329 18.6895 16.188C20.3008 15.6274 22.1455 13.7825 22.5586 11.3376C22.7939 9.94141 22.625 7.98462 20.8857 5.91382L20.8613 5.93408C18.8672 3.51855 15.9189 2.13403 12.7715 2.13403C7.00781 2.13403 2.32031 6.77979 2.32031 12.4907C2.32031 18.2026 7.00781 22.8501 12.7715 22.8501C15.0703 22.8501 17.25 22.1255 19.0742 20.7549L20.3555 22.4612C18.1592 24.1108 15.5371 24.9836 12.7715 24.9836ZM14.0898 8.00366C12.7627 8.00366 10.918 8.24951 9.66016 9.42163C7.91992 11.0452 7.63379 13.0112 7.94629 14.3096C8.19727 15.3525 8.84473 16.0945 9.72461 16.3455C10.0693 16.4441 10.3955 16.4941 10.6904 16.4941C12.0137 16.4941 12.6592 15.446 12.9668 14.5667C13.127 14.113 13.6553 12.4297 14.1768 10.7502L15.0146 8.04199C14.707 8.01685 14.3984 8.00391 14.0898 8.00366Z" fill="url(#paint0_linear_641_936)"/>
<defs>
<linearGradient id="paint0_linear_641_936" x1="13.8906" y1="10.545" x2="24.7726" y2="10.545" gradientUnits="userSpaceOnUse">
<stop stop-color="#F314FB"/>
<stop offset="1" stop-color="#FDF57C"/>
</linearGradient>
</defs>
</svg>
