<svg width="2793" height="171" viewBox="0 0 2793 171" fill="none" xmlns="http://www.w3.org/2000/svg">
<g clip-path="url(#clip0_844_918)">
<path d="M11.9543 8.55068e-05L0 20.7056L259.64 170.609L271.594 149.903L11.9543 8.55068e-05Z" fill="white"/>
<path d="M126.548 8.55068e-05L114.594 20.7056L374.233 170.609L386.188 149.903L126.548 8.55068e-05Z" fill="white"/>
<path d="M241.142 8.55068e-05L229.188 20.7056L488.828 170.609L500.782 149.903L241.142 8.55068e-05Z" fill="white"/>
<path d="M355.736 8.55068e-05L343.782 20.7056L603.421 170.609L615.376 149.903L355.736 8.55068e-05Z" fill="white"/>
<path d="M470.33 8.55068e-05L458.376 20.7056L718.016 170.609L729.97 149.903L470.33 8.55068e-05Z" fill="white"/>
<path d="M584.924 8.55068e-05L572.97 20.7056L832.609 170.609L844.564 149.903L584.924 8.55068e-05Z" fill="white"/>
<path d="M699.518 8.55068e-05L687.563 20.7056L947.203 170.609L959.157 149.903L699.518 8.55068e-05Z" fill="white"/>
<path d="M814.112 0.000111936L802.157 20.7056L1061.8 170.609L1073.75 149.903L814.112 0.000111936Z" fill="white"/>
<path d="M928.706 0.000111936L916.752 20.7056L1176.39 170.609L1188.35 149.903L928.706 0.000111936Z" fill="white"/>
<path d="M1043.3 0.000111936L1031.35 20.7056L1290.99 170.609L1302.94 149.903L1043.3 0.000111936Z" fill="white"/>
<path d="M1157.89 0.000111936L1145.94 20.7056L1405.58 170.609L1417.53 149.903L1157.89 0.000111936Z" fill="white"/>
<path d="M1272.49 0.000111936L1260.53 20.7056L1520.17 170.609L1532.13 149.903L1272.49 0.000111936Z" fill="white"/>
<path d="M1387.08 0.000111936L1375.13 20.7056L1634.77 170.609L1646.72 149.903L1387.08 0.000111936Z" fill="white"/>
<path d="M1501.68 0.000111936L1489.72 20.7056L1749.36 170.609L1761.31 149.903L1501.68 0.000111936Z" fill="white"/>
<path d="M1616.27 0.000111936L1604.31 20.7056L1863.95 170.609L1875.91 149.903L1616.27 0.000111936Z" fill="white"/>
<path d="M1730.86 0.000111936L1718.91 20.7056L1978.55 170.609L1990.5 149.903L1730.86 0.000111936Z" fill="white"/>
<path d="M1845.46 0.000111936L1833.5 20.7056L2093.14 170.609L2105.1 149.903L1845.46 0.000111936Z" fill="white"/>
<path d="M1960.05 0.000111936L1948.1 20.7056L2207.74 170.609L2219.69 149.903L1960.05 0.000111936Z" fill="white"/>
<path d="M2074.64 0.000111936L2062.69 20.7056L2322.33 170.609L2334.28 149.903L2074.64 0.000111936Z" fill="white"/>
<path d="M2189.24 0.000138365L2177.28 20.7056L2436.92 170.609L2448.88 149.903L2189.24 0.000138365Z" fill="white"/>
<path d="M2303.83 0.000138365L2291.88 20.7056L2551.52 170.609L2563.47 149.903L2303.83 0.000138365Z" fill="white"/>
<path d="M2418.43 0.000138365L2406.47 20.7056L2666.11 170.609L2678.07 149.903L2418.43 0.000138365Z" fill="white"/>
<path d="M2533.02 0.000138365L2521.07 20.7056L2780.71 170.609L2792.66 149.903L2533.02 0.000138365Z" fill="white"/>
</g>
<defs>
<clipPath id="clip0_844_918">
<rect width="2792.66" height="170.608" fill="white"/>
</clipPath>
</defs>
</svg>
