<svg width="17" height="19" viewBox="0 0 17 19" fill="none" xmlns="http://www.w3.org/2000/svg">
<path opacity="0.6" d="M8.7 18.26C7.42 18.26 6.26 18.0533 5.22 17.64C4.18 17.24 3.28667 16.66 2.54 15.9C1.79333 15.14 1.22 14.2266 0.820001 13.16C0.420001 12.08 0.220001 10.8733 0.220001 9.53997C0.220001 8.2333 0.426668 7.03997 0.840001 5.95997C1.26667 4.87997 1.86667 3.9533 2.64 3.17997C3.42667 2.3933 4.35333 1.78664 5.42 1.35997C6.48667 0.933304 7.66667 0.719971 8.96 0.719971C10.5067 0.719971 11.86 1.0333 13.02 1.65997C14.18 2.2733 15.08 3.1333 15.72 4.23997C16.3733 5.34664 16.7 6.63997 16.7 8.11997C16.7 9.27997 16.54 10.2866 16.22 11.14C15.9 11.9933 15.4533 12.6533 14.88 13.12C14.32 13.5866 13.66 13.82 12.9 13.82C12.1 13.82 11.4933 13.5933 11.08 13.14C10.68 12.6733 10.5067 12.0466 10.56 11.26L10.94 11.36C10.6067 12.16 10.1333 12.7733 9.52 13.2C8.90667 13.6133 8.26 13.82 7.58 13.82C6.55333 13.82 5.75333 13.5 5.18 12.86C4.62 12.2066 4.34 11.3133 4.34 10.18C4.34 9.20664 4.52667 8.33997 4.9 7.57997C5.27333 6.80664 5.78667 6.19997 6.44 5.75997C7.09334 5.31997 7.83333 5.09997 8.66 5.09997C9.38 5.09997 9.97333 5.27997 10.44 5.63997C10.9067 5.99997 11.2067 6.50664 11.34 7.15997H11.12L11.44 5.27997H12.76L11.86 10.46C11.8333 10.6333 11.8133 10.8 11.8 10.96C11.7867 11.12 11.78 11.2666 11.78 11.4C11.78 11.84 11.88 12.1733 12.08 12.4C12.28 12.6266 12.58 12.74 12.98 12.74C13.5 12.74 13.9467 12.5466 14.32 12.16C14.7067 11.7733 15.0067 11.2333 15.22 10.54C15.4467 9.84664 15.56 9.03997 15.56 8.11997C15.56 6.8533 15.28 5.7533 14.72 4.81997C14.1733 3.88664 13.4067 3.15997 12.42 2.63997C11.4333 2.11997 10.2733 1.85997 8.94 1.85997C7.46 1.85997 6.16 2.17997 5.04 2.81997C3.92 3.45997 3.04667 4.35997 2.42 5.51997C1.79333 6.66664 1.48 8.00664 1.48 9.53997C1.48 11.1266 1.77333 12.4866 2.36 13.62C2.96 14.7533 3.8 15.62 4.88 16.22C5.96 16.8333 7.23334 17.14 8.7 17.14C9.78 17.14 10.7533 16.9666 11.62 16.62C12.5 16.2866 13.2267 15.8133 13.8 15.2L14.46 16.16C14.0333 16.6133 13.52 16.9933 12.92 17.3C12.3333 17.62 11.68 17.86 10.96 18.02C10.2533 18.18 9.5 18.26 8.7 18.26ZM7.76 12.66C8.36 12.66 8.88667 12.48 9.34 12.12C9.80667 11.76 10.1733 11.2666 10.44 10.64C10.7067 10.0133 10.84 9.29997 10.84 8.49997C10.84 7.7533 10.6733 7.1933 10.34 6.81997C10.0067 6.44664 9.49334 6.25997 8.8 6.25997C8.21333 6.25997 7.68667 6.42664 7.22 6.75997C6.75333 7.0933 6.38 7.5533 6.1 8.13997C5.83333 8.72664 5.7 9.40664 5.7 10.18C5.7 10.98 5.88 11.5933 6.24 12.02C6.6 12.4466 7.10667 12.66 7.76 12.66Z" fill="white"/>
</svg>
