<svg width="21" height="21" viewBox="0 0 21 21" fill="none" xmlns="http://www.w3.org/2000/svg">
<g clip-path="url(#clip0_991_1608)">
<path d="M1.43182 10.5C1.43182 6.22523 1.43182 4.08784 2.75983 2.75983C4.08784 1.43182 6.22523 1.43182 10.5 1.43182C14.7747 1.43182 16.9122 1.43182 18.2402 2.75983C19.5682 4.08784 19.5682 6.22523 19.5682 10.5C19.5682 14.7747 19.5682 16.9122 18.2402 18.2402C16.9122 19.5682 14.7747 19.5682 10.5 19.5682C6.22523 19.5682 4.08784 19.5682 2.75983 18.2402C1.43182 16.9122 1.43182 14.7747 1.43182 10.5Z" stroke="white" stroke-width="1.5" stroke-linejoin="round"/>
<path d="M14.7954 10.5C14.7954 12.8723 12.8723 14.7955 10.5 14.7955C8.12767 14.7955 6.20453 12.8723 6.20453 10.5C6.20453 8.12769 8.12767 6.20454 10.5 6.20454C12.8723 6.20454 14.7954 8.12769 14.7954 10.5Z" stroke="white" stroke-width="1.5"/>
<path d="M15.7578 5.25H15.7488" stroke="white" stroke-width="2" stroke-linecap="round" stroke-linejoin="round"/>
</g>
<defs>
<clipPath id="clip0_991_1608">
<rect width="21" height="21" fill="white"/>
</clipPath>
</defs>
</svg>
