<svg width="25" height="25" viewBox="0 0 25 25" fill="none" xmlns="http://www.w3.org/2000/svg">
<path opacity="0.4" d="M16.8251 10.25C18.0631 10.25 19.0768 10.2499 19.8514 10.3647C20.6562 10.4839 21.3749 10.7496 21.8445 11.4241C22.3131 12.0974 22.3154 12.8648 22.1522 13.6641C21.9949 14.4349 21.6487 15.3927 21.2253 16.5641L20.1064 19.6601C19.8882 20.264 19.7037 20.7746 19.5059 21.1758C19.2957 21.6022 19.0399 21.9718 18.6435 22.2512C18.2467 22.5308 17.8131 22.6468 17.3415 22.7C16.8985 22.75 16.358 22.75 15.7198 22.75H9.2809C8.64273 22.75 8.10213 22.75 7.65913 22.7C7.1876 22.6468 6.75393 22.5308 6.35716 22.2512C5.96076 21.9718 5.70498 21.6022 5.49476 21.1758C5.29695 20.7746 5.11243 20.264 4.89421 19.6601L3.77535 16.5641C3.35198 15.3927 3.0058 14.4349 2.84843 13.6641C2.68522 12.8648 2.68753 12.0974 3.15621 11.4241C3.62577 10.7496 4.34444 10.4839 5.14927 10.3647C5.92387 10.2499 6.93755 10.25 8.17552 10.25H16.8251Z" fill="white"/>
<path d="M18.0223 6.25H6.97873C6.76449 6.24999 6.56758 6.24998 6.40228 6.26126C6.22464 6.27338 6.0293 6.30099 5.83079 6.38321C5.40199 6.56083 5.06131 6.90151 4.8837 7.33031C4.80148 7.52881 4.77386 7.72415 4.76174 7.90179C4.75046 8.0671 4.75047 8.26392 4.75049 8.47816V9.16344C4.82317 9.15034 4.89504 9.13866 4.96586 9.12817C5.8325 8.99981 6.92319 8.99991 8.09279 9.00001H16.9073C18.0769 8.99991 19.1676 8.99981 20.0343 9.12817C20.1054 9.1387 20.1775 9.15044 20.2505 9.1636V8.47824C20.2505 8.26397 20.2505 8.06712 20.2393 7.90179C20.2271 7.72415 20.1995 7.52881 20.1173 7.33031C19.9397 6.90151 19.599 6.56083 19.1702 6.38321C18.9717 6.30099 18.7764 6.27338 18.5987 6.26126C18.4334 6.24998 18.2366 6.24999 18.0223 6.25Z" fill="white"/>
<path d="M15.5223 2.25H9.47873C9.26449 2.24999 9.06758 2.24998 8.90228 2.26126C8.72464 2.27338 8.5293 2.30099 8.33079 2.38321C7.90199 2.56083 7.56131 2.90151 7.3837 3.33031C7.30148 3.52881 7.27386 3.72415 7.26174 3.90179C7.25046 4.0671 7.25047 4.26392 7.25049 4.47816V5.00001L17.7505 5V4.47824C17.7505 4.26397 17.7505 4.06712 17.7393 3.90179C17.7271 3.72415 17.6995 3.52881 17.6173 3.33031C17.4397 2.90151 17.099 2.56083 16.6702 2.38321C16.4717 2.30099 16.2764 2.27338 16.0987 2.26126C15.9334 2.24998 15.7366 2.24999 15.5223 2.25Z" fill="white"/>
</svg>
