<svg width="16" height="15" viewBox="0 0 16 15" fill="none" xmlns="http://www.w3.org/2000/svg">
<path d="M10.8177 13.0837L2.60933 4.87532C1.97936 4.24535 0.902222 4.69152 0.902222 5.58243V13.7908C0.902222 14.3431 1.34994 14.7908 1.90222 14.7908H10.1106C11.0015 14.7908 11.4477 13.7137 10.8177 13.0837Z" fill="#F5C675"/>
<rect x="3.43616" y="10.3511" width="10.9132" height="3.64905" rx="1.5" stroke="#F5C675"/>
<mask id="mask0_559_982" style="mask-type:alpha" maskUnits="userSpaceOnUse" x="2" y="9" width="13" height="6">
<rect x="2.93616" y="9.85107" width="11.9132" height="4.64905" rx="2" fill="#D9D9D9"/>
</mask>
<g mask="url(#mask0_559_982)">
<path fill-rule="evenodd" clip-rule="evenodd" d="M7.00411 15.0813C6.79433 14.8384 6.82118 14.4714 7.06408 14.2616L12.5769 9.50057C12.8198 9.29079 13.1868 9.31764 13.3965 9.56054V9.56054C13.6063 9.80344 13.5795 10.1704 13.3366 10.3802L7.82376 15.1413C7.58086 15.351 7.21389 15.3242 7.00411 15.0813V15.0813Z" fill="#F5C675"/>
<path fill-rule="evenodd" clip-rule="evenodd" d="M11.6532 15.0813C11.4434 14.8384 11.4702 14.4714 11.7131 14.2616L17.2259 9.50057C17.4688 9.29079 17.8358 9.31764 18.0456 9.56054V9.56054C18.2554 9.80344 18.2285 10.1704 17.9856 10.3802L12.4728 15.1413C12.2299 15.351 11.8629 15.3242 11.6532 15.0813V15.0813Z" fill="#F5C675"/>
<path fill-rule="evenodd" clip-rule="evenodd" d="M2.35506 15.0813C2.14528 14.8384 2.17213 14.4714 2.41503 14.2616L7.92785 9.50057C8.17075 9.29079 8.53772 9.31764 8.7475 9.56054V9.56054C8.95728 9.80344 8.93043 10.1704 8.68753 10.3802L3.17471 15.1413C2.93181 15.351 2.56484 15.3242 2.35506 15.0813V15.0813Z" fill="#F5C675"/>
</g>
<rect x="1.90899" y="6.06301" width="12.1275" height="3.64905" rx="1.5" transform="rotate(-25.3264 1.90899 6.06301)" stroke="#F5C675"/>
<mask id="mask1_559_982" style="mask-type:alpha" maskUnits="userSpaceOnUse" x="1" y="0" width="14" height="10">
<rect x="1.22778" y="5.83228" width="13.1446" height="4.64905" rx="2" transform="rotate(-25.3264 1.22778 5.83228)" fill="#D9D9D9"/>
</mask>
<g mask="url(#mask1_559_982)">
<path fill-rule="evenodd" clip-rule="evenodd" d="M8.25504 8.29281C7.96152 8.16299 7.82881 7.8198 7.95863 7.52628L10.9049 0.864579C11.0347 0.571055 11.3779 0.438345 11.6714 0.568163V0.568163C11.965 0.697981 12.0977 1.04117 11.9679 1.33469L9.02157 7.99639C8.89175 8.28992 8.54856 8.42263 8.25504 8.29281V8.29281Z" fill="#F5C675"/>
<path fill-rule="evenodd" clip-rule="evenodd" d="M12.4573 6.30404C12.1638 6.17422 12.0311 5.83103 12.1609 5.53751L15.1072 -1.12419C15.237 -1.41771 15.5802 -1.55042 15.8737 -1.42061V-1.42061C16.1672 -1.29079 16.3 -0.947603 16.1701 -0.654079L13.2238 6.00762C13.094 6.30115 12.7508 6.43386 12.4573 6.30404V6.30404Z" fill="#F5C675"/>
<path fill-rule="evenodd" clip-rule="evenodd" d="M4.05289 10.2815C3.75937 10.1516 3.62666 9.80845 3.75648 9.51493L6.70277 2.85323C6.83259 2.5597 7.17578 2.42699 7.4693 2.55681V2.55681C7.76282 2.68663 7.89553 3.02981 7.76572 3.32334L4.81942 9.98504C4.6896 10.2786 4.34642 10.4113 4.05289 10.2815V10.2815Z" fill="#F5C675"/>
</g>
</svg>
