<svg width="19" height="23" viewBox="0 0 19 23" fill="none" xmlns="http://www.w3.org/2000/svg">
<path d="M9.17101 11.1662C12.2545 11.1662 14.7541 8.6666 14.7541 5.58312C14.7541 2.49965 12.2545 0 9.17101 0C6.08754 0 3.58789 2.49965 3.58789 5.58312C3.58789 8.6666 6.08754 11.1662 9.17101 11.1662Z" fill="#1AF5EB"/>
<path d="M9.16426 22.9997C12.4054 22.9997 15.3344 21.6605 17.4266 19.5053C18.5556 18.3425 18.6533 16.5105 17.6418 15.2449C15.6543 12.7585 12.5956 11.166 9.16426 11.166C5.75629 11.166 2.71574 12.7377 0.726466 15.1947C-0.3248 16.4941 -0.221923 18.3615 0.949513 19.5537C3.03908 21.6804 5.94822 22.9997 9.16426 22.9997Z" fill="#1AF5EB"/>
</svg>
