<svg width="37" height="34" viewBox="0 0 37 34" fill="none" xmlns="http://www.w3.org/2000/svg">
<g filter="url(#filter0_d_272_1341)">
<path fill-rule="evenodd" clip-rule="evenodd" d="M17.7169 10.4921C18.0774 9.83598 19.0201 9.83598 19.3806 10.4921L26.031 22.5936C26.3787 23.2262 25.921 24 25.1992 24H11.8983C11.1765 24 10.7188 23.2262 11.0665 22.5936L17.7169 10.4921ZM18.8652 10.868V14.3899C19.7556 14.4437 20.5784 14.748 21.264 15.2332L18.8652 10.868ZM18.2324 14.3942V10.868L15.7912 15.3101C16.4813 14.7921 17.3203 14.4616 18.2324 14.3942ZM18.2324 15.029V23.0359C16.1761 22.8595 14.5621 21.1345 14.5621 19.0325C14.5621 16.9305 16.1761 15.2054 18.2324 15.029ZM18.8652 23.0409V15.0241C20.9515 15.1702 22.5987 16.9089 22.5987 19.0325C22.5987 21.156 20.9515 22.8948 18.8652 23.0409ZM11.6211 22.8984L13.9429 18.6734C13.9339 18.7919 13.9293 18.9116 13.9293 19.0325C13.9293 21.0052 15.1574 22.691 16.8908 23.3672H11.8983C11.6577 23.3672 11.5052 23.1093 11.6211 22.8984ZM25.1992 23.3672H20.27C22.0034 22.691 23.2315 21.0052 23.2315 19.0325C23.2315 18.9556 23.2297 18.8792 23.226 18.8032L25.4765 22.8984C25.5923 23.1093 25.4398 23.3672 25.1992 23.3672Z" fill="white"/>
<path fill-rule="evenodd" clip-rule="evenodd" d="M17.7169 10.4921C18.0774 9.83598 19.0201 9.83598 19.3806 10.4921L26.031 22.5936C26.3787 23.2262 25.921 24 25.1992 24H11.8983C11.1765 24 10.7188 23.2262 11.0665 22.5936L17.7169 10.4921ZM18.8652 10.868V14.3899C19.7556 14.4437 20.5784 14.748 21.264 15.2332L18.8652 10.868ZM18.2324 14.3942V10.868L15.7912 15.3101C16.4813 14.7921 17.3203 14.4616 18.2324 14.3942ZM18.2324 15.029V23.0359C16.1761 22.8595 14.5621 21.1345 14.5621 19.0325C14.5621 16.9305 16.1761 15.2054 18.2324 15.029ZM18.8652 23.0409V15.0241C20.9515 15.1702 22.5987 16.9089 22.5987 19.0325C22.5987 21.156 20.9515 22.8948 18.8652 23.0409ZM11.6211 22.8984L13.9429 18.6734C13.9339 18.7919 13.9293 18.9116 13.9293 19.0325C13.9293 21.0052 15.1574 22.691 16.8908 23.3672H11.8983C11.6577 23.3672 11.5052 23.1093 11.6211 22.8984ZM25.1992 23.3672H20.27C22.0034 22.691 23.2315 21.0052 23.2315 19.0325C23.2315 18.9556 23.2297 18.8792 23.226 18.8032L25.4765 22.8984C25.5923 23.1093 25.4398 23.3672 25.1992 23.3672Z" fill="url(#paint0_linear_272_1341)" fill-opacity="0.25"/>
</g>
<defs>
<filter id="filter0_d_272_1341" x="0.947784" y="0" width="35.2019" height="34" filterUnits="userSpaceOnUse" color-interpolation-filters="sRGB">
<feFlood flood-opacity="0" result="BackgroundImageFix"/>
<feColorMatrix in="SourceAlpha" type="matrix" values="0 0 0 0 0 0 0 0 0 0 0 0 0 0 0 0 0 0 127 0" result="hardAlpha"/>
<feOffset/>
<feGaussianBlur stdDeviation="5"/>
<feComposite in2="hardAlpha" operator="out"/>
<feColorMatrix type="matrix" values="0 0 0 0 0.905882 0 0 0 0 0.803922 0 0 0 0 0.584314 0 0 0 0.4 0"/>
<feBlend mode="normal" in2="BackgroundImageFix" result="effect1_dropShadow_272_1341"/>
<feBlend mode="normal" in="SourceGraphic" in2="effect1_dropShadow_272_1341" result="shape"/>
</filter>
<linearGradient id="paint0_linear_272_1341" x1="11.1069" y1="17" x2="25.8945" y2="17" gradientUnits="userSpaceOnUse">
<stop stop-color="#E7CD95"/>
<stop offset="1" stop-color="#E7CD95" stop-opacity="0"/>
</linearGradient>
</defs>
</svg>
