<svg width="19" height="16" viewBox="0 0 19 16" fill="none" xmlns="http://www.w3.org/2000/svg">
<path fill-rule="evenodd" clip-rule="evenodd" d="M8.59806 0.56235C9.01011 -0.18745 10.0874 -0.18745 10.4995 0.562349L18.0999 14.3927C18.4973 15.1157 17.9742 16 17.1492 16H1.94829C1.12335 16 0.600278 15.1157 0.997584 14.3927L8.59806 0.56235ZM9.91036 0.991988V5.01704C10.928 5.0785 11.8683 5.42624 12.652 5.98078L9.91036 0.991988ZM9.18716 5.0219V0.992008L6.39726 6.0687C7.18601 5.47674 8.14477 5.09901 9.18716 5.0219ZM9.18716 5.74744V14.8982C6.8371 14.6966 4.99255 12.7251 4.99255 10.3228C4.99255 7.92053 6.8371 5.94906 9.18716 5.74744ZM9.91036 14.9038V5.7418C12.2948 5.90874 14.1773 7.89594 14.1773 10.3228C14.1773 12.7497 12.2948 14.7369 9.91036 14.9038ZM1.63139 14.741L4.28496 9.91241C4.27461 10.0479 4.26935 10.1847 4.26935 10.3228C4.26935 12.5774 5.67293 14.5041 7.65394 15.2768H1.94829C1.67331 15.2768 1.49895 14.982 1.63139 14.741ZM17.1492 15.2768H11.5159C13.4969 14.5041 14.9005 12.5774 14.9005 10.3228C14.9005 10.235 14.8984 10.1476 14.8942 10.0609L17.4661 14.741C17.5986 14.982 17.4242 15.2768 17.1492 15.2768Z" fill="white"/>
<path fill-rule="evenodd" clip-rule="evenodd" d="M8.59806 0.56235C9.01011 -0.18745 10.0874 -0.18745 10.4995 0.562349L18.0999 14.3927C18.4973 15.1157 17.9742 16 17.1492 16H1.94829C1.12335 16 0.600278 15.1157 0.997584 14.3927L8.59806 0.56235ZM9.91036 0.991988V5.01704C10.928 5.0785 11.8683 5.42624 12.652 5.98078L9.91036 0.991988ZM9.18716 5.0219V0.992008L6.39726 6.0687C7.18601 5.47674 8.14477 5.09901 9.18716 5.0219ZM9.18716 5.74744V14.8982C6.8371 14.6966 4.99255 12.7251 4.99255 10.3228C4.99255 7.92053 6.8371 5.94906 9.18716 5.74744ZM9.91036 14.9038V5.7418C12.2948 5.90874 14.1773 7.89594 14.1773 10.3228C14.1773 12.7497 12.2948 14.7369 9.91036 14.9038ZM1.63139 14.741L4.28496 9.91241C4.27461 10.0479 4.26935 10.1847 4.26935 10.3228C4.26935 12.5774 5.67293 14.5041 7.65394 15.2768H1.94829C1.67331 15.2768 1.49895 14.982 1.63139 14.741ZM17.1492 15.2768H11.5159C13.4969 14.5041 14.9005 12.5774 14.9005 10.3228C14.9005 10.235 14.8984 10.1476 14.8942 10.0609L17.4661 14.741C17.5986 14.982 17.4242 15.2768 17.1492 15.2768Z" fill="url(#paint0_linear_272_1341)" fill-opacity="0.25"/>
<defs>
<linearGradient id="paint0_linear_272_1341" x1="1.04376" y1="8" x2="17.9439" y2="8" gradientUnits="userSpaceOnUse">
<stop stop-color="#E7CD95"/>
<stop offset="1" stop-color="#E7CD95" stop-opacity="0"/>
</linearGradient>
</defs>
</svg>
