<svg width="13" height="16" viewBox="0 0 13 16" fill="none" xmlns="http://www.w3.org/2000/svg">
<path fill-rule="evenodd" clip-rule="evenodd" d="M10.4345 3.88572C10.4345 6.03174 8.69478 7.77143 6.54876 7.77143C4.40274 7.77143 2.66305 6.03174 2.66305 3.88572C2.66305 1.73969 4.40274 0 6.54876 0C8.69478 0 10.4345 1.73969 10.4345 3.88572ZM12.1047 13.5701C10.6967 15.0688 8.72564 16 6.5445 16C4.38024 16 2.42251 15.0826 1.01632 13.6038C0.22799 12.7748 0.158758 11.4763 0.866216 10.5728C2.20492 8.86432 4.25108 7.77143 6.5445 7.77143C8.85363 7.77143 10.912 8.87875 12.2495 10.6077C12.9302 11.4878 12.8645 12.7616 12.1047 13.5701Z" fill="url(#paint0_linear_272_1309)"/>
<defs>
<linearGradient id="paint0_linear_272_1309" x1="0.336845" y1="7.64727" x2="12.6747" y2="7.64727" gradientUnits="userSpaceOnUse">
<stop stop-color="#F960FF"/>
<stop offset="1" stop-color="#F314FB"/>
</linearGradient>
</defs>
</svg>
