<svg width="37" height="34" viewBox="0 0 37 34" fill="none" xmlns="http://www.w3.org/2000/svg">
<g filter="url(#filter0_d_272_1301)">
<path d="M21.6987 10C20.9515 10.0116 20.2205 10.2202 19.5796 10.6047C18.9387 10.9893 18.4107 11.5361 18.0488 12.19C17.6868 11.5361 17.1588 10.9893 16.5179 10.6047C15.8771 10.2202 15.1461 10.0116 14.3988 10C13.2075 10.0518 12.0852 10.5729 11.2769 11.4495C10.4687 12.3262 10.0402 13.4871 10.0852 14.6786C10.0852 17.6961 13.2613 20.9917 15.9251 23.2262C16.5199 23.726 17.2719 24 18.0488 24C18.8256 24 19.5776 23.726 20.1724 23.2262C22.8362 20.9917 26.0124 17.6961 26.0124 14.6786C26.0573 13.4871 25.6289 12.3262 24.8206 11.4495C24.0124 10.5729 22.89 10.0518 21.6987 10Z" fill="url(#paint0_linear_272_1301)"/>
</g>
<defs>
<filter id="filter0_d_272_1301" x="0.0819702" y="0" width="35.9336" height="34" filterUnits="userSpaceOnUse" color-interpolation-filters="sRGB">
<feFlood flood-opacity="0" result="BackgroundImageFix"/>
<feColorMatrix in="SourceAlpha" type="matrix" values="0 0 0 0 0 0 0 0 0 0 0 0 0 0 0 0 0 0 127 0" result="hardAlpha"/>
<feOffset/>
<feGaussianBlur stdDeviation="5"/>
<feComposite in2="hardAlpha" operator="out"/>
<feColorMatrix type="matrix" values="0 0 0 0 0.886275 0 0 0 0 0 0 0 0 0 0.160784 0 0 0 0.4 0"/>
<feBlend mode="normal" in2="BackgroundImageFix" result="effect1_dropShadow_272_1301"/>
<feBlend mode="normal" in="SourceGraphic" in2="effect1_dropShadow_272_1301" result="shape"/>
</filter>
<linearGradient id="paint0_linear_272_1301" x1="10.0297" y1="16.6914" x2="25.9569" y2="16.6914" gradientUnits="userSpaceOnUse">
<stop stop-color="#FF365B"/>
<stop offset="1" stop-color="#E20029"/>
</linearGradient>
</defs>
</svg>
