<svg width="20" height="16" viewBox="0 0 20 16" fill="none" xmlns="http://www.w3.org/2000/svg">
<path d="M14.2202 0C13.3661 0.013284 12.5307 0.25169 11.7983 0.691141C11.0659 1.13059 10.4624 1.75553 10.0488 2.50284C9.63515 1.75553 9.03165 1.13059 8.29923 0.691141C7.56681 0.25169 6.7314 0.013284 5.87737 0C4.51593 0.059151 3.23323 0.654724 2.30951 1.6566C1.3858 2.65848 0.896142 3.98522 0.947527 5.34698C0.947527 8.79559 4.5774 12.562 7.62177 15.1156C8.30149 15.6868 9.16091 16 10.0488 16C10.9366 16 11.796 15.6868 12.4758 15.1156C15.5201 12.562 19.15 8.79559 19.15 5.34698C19.2014 3.98522 18.7117 2.65848 17.788 1.6566C16.8643 0.654724 15.5816 0.059151 14.2202 0Z" fill="url(#paint0_linear_272_1301)"/>
<defs>
<linearGradient id="paint0_linear_272_1301" x1="0.88412" y1="7.64727" x2="19.0866" y2="7.64727" gradientUnits="userSpaceOnUse">
<stop stop-color="#FF365B"/>
<stop offset="1" stop-color="#E20029"/>
</linearGradient>
</defs>
</svg>
