<svg width="22" height="22" viewBox="0 0 22 22" fill="none" xmlns="http://www.w3.org/2000/svg">
<path d="M7.75906 6.83869C7.75856 6.9597 7.78203 7.07961 7.82811 7.1915C7.87419 7.30339 7.94197 7.40506 8.02753 7.49063C8.1131 7.57619 8.21476 7.64397 8.32666 7.69005C8.43855 7.73613 8.55846 7.7596 8.67947 7.7591L12.9445 7.7591L6.46269 14.2409C6.29078 14.4128 6.19421 14.646 6.19421 14.8891C6.19421 15.1322 6.29078 15.3654 6.46269 15.5373C6.6346 15.7092 6.86776 15.8058 7.11087 15.8058C7.35399 15.8058 7.58715 15.7092 7.75906 15.5373L14.2409 9.05547L14.2409 13.3205C14.2404 13.4415 14.2638 13.5614 14.3099 13.6733C14.356 13.7852 14.4238 13.8869 14.5093 13.9724C14.5949 14.058 14.6966 14.1258 14.8085 14.1719C14.9204 14.2179 15.0403 14.2414 15.1613 14.2409C15.4035 14.2402 15.6355 14.1437 15.8067 13.9724C15.978 13.8012 16.0745 13.5691 16.0752 13.327L16.0687 7.7591C16.0702 7.27365 15.879 6.80745 15.5372 6.46274C15.1931 6.12488 14.7296 5.93625 14.2474 5.93771L8.67947 5.93123C8.4373 5.93023 8.20456 6.0251 8.03211 6.19513C7.85965 6.36516 7.76149 6.59652 7.75906 6.83869Z" fill="#C92FAC"/>
</svg>
