<svg width="21" height="21" viewBox="0 0 21 21" fill="none" xmlns="http://www.w3.org/2000/svg">
<g clip-path="url(#clip0_1300_1567)">
<path d="M1.3125 10.5C1.3125 6.16897 1.3125 4.00346 2.65798 2.65798C4.00346 1.3125 6.16897 1.3125 10.5 1.3125C14.831 1.3125 16.9965 1.3125 18.3421 2.65798C19.6875 4.00346 19.6875 6.16897 19.6875 10.5C19.6875 14.831 19.6875 16.9965 18.3421 18.3421C16.9965 19.6875 14.831 19.6875 10.5 19.6875C6.16897 19.6875 4.00346 19.6875 2.65798 18.3421C1.3125 16.9965 1.3125 14.831 1.3125 10.5Z" stroke="white" stroke-width="1.5" stroke-linecap="round" stroke-linejoin="round"/>
<path d="M15.3355 8.16873C14.2837 4.25573 10.6667 4.50016 10.6667 4.50016C10.6667 4.50016 5.66449 4.16707 5.66449 10.4999C5.66449 16.8327 10.6667 16.4995 10.6667 16.4995C10.6667 16.4995 13.6399 16.6976 15.0021 13.8869C15.4467 12.6477 15.3355 10.1696 11.0002 10.1696C11.0002 10.1696 8.99936 10.1696 8.99936 11.837C8.99936 12.4883 9.66628 13.171 10.6667 13.171C11.6672 13.171 12.7818 12.4859 13.0011 11.1701C13.6682 7.16828 9.99983 6.83479 8.99936 8.50222" stroke="white" stroke-width="1.5" stroke-linecap="round"/>
</g>
<defs>
<clipPath id="clip0_1300_1567">
<rect width="21" height="21" fill="white"/>
</clipPath>
</defs>
</svg>
