<svg width="21" height="21" viewBox="0 0 21 21" fill="none" xmlns="http://www.w3.org/2000/svg">
<g clip-path="url(#clip0_991_1617)">
<path d="M1.43182 10.5C1.43182 6.22523 1.43182 4.08784 2.75983 2.75983C4.08784 1.43182 6.22523 1.43182 10.5 1.43182C14.7747 1.43182 16.9122 1.43182 18.2402 2.75983C19.5682 4.08784 19.5682 6.22523 19.5682 10.5C19.5682 14.7747 19.5682 16.9122 18.2402 18.2402C16.9122 19.5682 14.7747 19.5682 10.5 19.5682C6.22523 19.5682 4.08784 19.5682 2.75983 18.2402C1.43182 16.9122 1.43182 14.7747 1.43182 10.5Z" stroke="white" stroke-width="1.5" stroke-linejoin="round"/>
<path d="M9.10245 9.55261C8.31967 9.44198 6.53545 9.62506 5.66056 11.2428C4.78566 12.8605 5.66742 14.5442 6.21766 15.1839C6.76103 15.7823 8.48807 16.9155 10.32 15.8091C10.774 15.5348 11.3397 15.3303 11.9815 13.1873L11.9068 4.75502C11.783 5.68354 12.8087 7.8614 15.729 8.11908" stroke="white" stroke-width="1.5" stroke-linecap="round" stroke-linejoin="round"/>
</g>
<defs>
<clipPath id="clip0_991_1617">
<rect width="21" height="21" fill="white"/>
</clipPath>
</defs>
</svg>
