<svg width="117" height="117" viewBox="0 0 117 117" fill="none" xmlns="http://www.w3.org/2000/svg">
<path d="M85.2033 43.9289C85.2394 43.9287 85.2759 43.9287 85.3125 43.9287C97.4283 43.9287 107.25 53.7683 107.25 65.9066C107.25 77.219 98.7188 86.5351 87.75 87.75M85.2033 43.9289C85.2755 43.1245 85.3125 42.3099 85.3125 41.4867C85.3125 26.6514 73.3083 14.625 58.5 14.625C44.4758 14.625 32.9664 25.4118 31.787 39.1556M85.2033 43.9289C84.7046 49.4695 82.5269 54.5249 79.1836 58.5804M31.787 39.1556C19.4219 40.3344 9.75 50.7678 9.75 63.4642C9.75 75.2783 18.1241 85.1331 29.25 87.3956M31.787 39.1556C32.5565 39.0822 33.3364 39.0447 34.125 39.0447C39.6134 39.0447 44.6781 40.862 48.7524 43.9287" stroke="white" stroke-width="4" stroke-linecap="round" stroke-linejoin="round"/>
<path d="M58.5 63.375V102.375M58.5 63.375C55.0865 63.375 48.7087 73.0972 46.3125 75.5625M58.5 63.375C61.9135 63.375 68.2914 73.0972 70.6875 75.5625" stroke="white" stroke-width="4" stroke-linecap="round" stroke-linejoin="round"/>
</svg>
