<svg width="21" height="21" viewBox="0 0 21 21" fill="none" xmlns="http://www.w3.org/2000/svg">
<path d="M10.5 18.6136C12.2274 18.6136 13.8839 18.443 15.4191 18.1301C17.3367 17.7392 18.2956 17.5437 19.1705 16.4188C20.0454 15.2938 20.0454 14.0025 20.0454 11.4197V9.5803C20.0454 6.99752 20.0454 5.70615 19.1705 4.58122C18.2956 3.4563 17.3367 3.26086 15.4191 2.86996C13.8839 2.55701 12.2274 2.38637 10.5 2.38637C8.77254 2.38637 7.11601 2.55701 5.58079 2.86996C3.6632 3.26086 2.70441 3.4563 1.82947 4.58122C0.954529 5.70615 0.954529 6.99752 0.954529 9.5803V11.4197C0.954529 14.0025 0.954529 15.2938 1.82947 16.4188C2.70441 17.5437 3.6632 17.7392 5.58079 18.1301C7.11601 18.443 8.77254 18.6136 10.5 18.6136Z" stroke="white" stroke-width="1.5"/>
<path d="M14.282 10.7987C14.1403 11.3769 13.3866 11.7923 11.8792 12.623C10.2396 13.5264 9.41983 13.9782 8.75584 13.8042C8.53095 13.7452 8.32382 13.6415 8.14989 13.5009C7.63635 13.0858 7.63635 12.2238 7.63635 10.5C7.63635 8.77618 7.63635 7.91425 8.14989 7.49908C8.32382 7.35845 8.53095 7.25482 8.75584 7.19587C9.41983 7.02183 10.2396 7.47356 11.8792 8.37702C13.3866 9.20773 14.1403 9.62306 14.282 10.2013C14.3302 10.3981 14.3302 10.6018 14.282 10.7987Z" stroke="white" stroke-width="1.5" stroke-linejoin="round"/>
</svg>
